  0
SECTION
  2
HEADER
  9
$ANGBASE
  50
0.0
  9
$ANGDIR
  70
1
  9
$MEASUREMENT
  70
1
  0
ENDSEC
  0
SECTION
  2
TABLES
  0
TABLE
  2
LTYPE
  70
4
  0
LTYPE
  5
40F
  2
CONTINUOUS
  70
0
  3
Solid line
  72
65
  73
0
  40
0.0
  0
LTYPE
  5
410
  2
DASHDOT
 70
0
  3
Dash Dot ____ _ ____ _
 72
65
 73
4
 40
2.0
 49
1.25
 49
-0.25
 49
0.25
 49
-0.25
  0
LTYPE
  5
411
  2
DASHED
 70
0
  3
Dashed __ __ __ __ __
 72
65
 73
2
 40
0.75
 49
0.5
 49
-0.25
  0
LTYPE
  5
43B
  2
DOTTED
 70
0
  3
Dotted .  .  .  .
 72
65
 73
2
 40
0.2
 49
0.0
 49
-0.2
  0
ENDTAB
  0
TABLE
  2
STYLE
  70
4
  0
STYLE
  2
KICAD
  70
0
  40
0
  41
1
  42
1
  50
0
  71
0
  3
isocp.shx
  0
STYLE
  2
KICADB
  70
0
  40
0
  41
1
  42
1
  50
0
  71
0
  3
isocp.shx
  0
STYLE
  2
KICADI
  70
0
  40
0
  41
1
  42
1
  50
15
  71
0
  3
isocp.shx
  0
STYLE
  2
KICADBI
  70
0
  40
0
  41
1
  42
1
  50
15
  71
0
  3
isocp.shx
  0
ENDTAB
  0
TABLE
  2
LAYER
  70
1
  0
LAYER
  2
BLACK
  70
0
  62
7
  6
CONTINUOUS
  0
ENDTAB
  0
ENDSEC
  0
SECTION
  2
ENTITIES
0
LINE
8
BLACK
6
CONTINUOUS
10
63.3001900000000006
20
19.5249629999999996
11
63.3003809999999945
21
19.524996999999999
0
LINE
8
BLACK
6
CONTINUOUS
10
63.3003809999999945
20
19.524996999999999
11
64.5893349999999913
21
19.5053659999999986
0
LINE
8
BLACK
6
CONTINUOUS
10
64.5893349999999913
20
19.5053659999999986
11
64.5896669999999915
21
19.5052950000000003
0
LINE
8
BLACK
6
CONTINUOUS
10
64.5896669999999915
20
19.5052950000000003
11
64.5900049999999908
21
19.5053470000000004
0
LINE
8
BLACK
6
CONTINUOUS
10
64.5900049999999908
20
19.5053470000000004
11
66.0887709999999942
21
19.4423269999999988
0
LINE
8
BLACK
6
CONTINUOUS
10
66.0887709999999942
20
19.4423269999999988
11
66.0890569999999968
21
19.4422579999999989
0
LINE
8
BLACK
6
CONTINUOUS
10
66.0890569999999968
20
19.4422579999999989
11
66.0893509999999935
21
19.4422959999999989
0
LINE
8
BLACK
6
CONTINUOUS
10
66.0893509999999935
20
19.4422959999999989
11
67.8118690000000015
21
19.3297670000000004
0
LINE
8
BLACK
6
CONTINUOUS
10
67.8118690000000015
20
19.3297670000000004
11
67.8121179999999981
21
19.329701
0
LINE
8
BLACK
6
CONTINUOUS
10
67.8121179999999981
20
19.329701
11
67.8123760000000004
21
19.3297290000000004
0
LINE
8
BLACK
6
CONTINUOUS
10
67.8123760000000004
20
19.3297290000000004
11
69.7683959999999956
21
19.1619199999999985
0
LINE
8
BLACK
6
CONTINUOUS
10
69.7683959999999956
20
19.1619199999999985
11
69.7686169999999919
21
19.1618560000000002
0
LINE
8
BLACK
6
CONTINUOUS
10
69.7686169999999919
20
19.1618560000000002
11
69.7688449999999989
21
19.1618770000000005
0
LINE
8
BLACK
6
CONTINUOUS
10
69.7688449999999989
20
19.1618770000000005
11
71.961835999999991
21
18.9337739999999997
0
LINE
8
BLACK
6
CONTINUOUS
10
71.961835999999991
20
18.9337739999999997
11
71.9620319999999936
21
18.9337139999999984
0
LINE
8
BLACK
6
CONTINUOUS
10
71.9620319999999936
20
18.9337139999999984
11
71.9622399999999942
21
18.9337289999999996
0
LINE
8
BLACK
6
CONTINUOUS
10
71.9622399999999942
20
18.9337289999999996
11
74.3867549999999937
21
18.6416269999999997
0
LINE
8
BLACK
6
CONTINUOUS
10
74.3867549999999937
20
18.6416269999999997
11
74.3869339999999966
21
18.6415690000000005
0
LINE
8
BLACK
6
CONTINUOUS
10
74.3869339999999966
20
18.6415690000000005
11
74.3871230000000025
21
18.6415799999999976
0
LINE
8
BLACK
6
CONTINUOUS
10
74.3871230000000025
20
18.6415799999999976
11
77.0257209999999901
21
18.283808999999998
0
LINE
8
BLACK
6
CONTINUOUS
10
77.0257209999999901
20
18.283808999999998
11
77.0258869999999973
21
18.2837519999999998
0
LINE
8
BLACK
6
CONTINUOUS
10
77.0258869999999973
20
18.2837519999999998
11
77.026063999999991
21
18.2837600000000009
0
LINE
8
BLACK
6
CONTINUOUS
10
77.026063999999991
20
18.2837600000000009
11
79.8460989999999953
21
17.8615290000000009
0
LINE
8
BLACK
6
CONTINUOUS
10
79.8460989999999953
20
17.8615290000000009
11
79.8462559999999968
21
17.8614730000000002
0
LINE
8
BLACK
6
CONTINUOUS
10
79.8462559999999968
20
17.8614730000000002
11
79.846423999999999
21
17.8614779999999982
0
LINE
8
BLACK
6
CONTINUOUS
10
79.846423999999999
20
17.8614779999999982
11
82.797466
21
17.3797759999999997
0
LINE
8
BLACK
6
CONTINUOUS
10
82.797466
20
17.3797759999999997
11
82.7976170000000025
21
17.3797199999999989
0
LINE
8
BLACK
6
CONTINUOUS
10
82.7976170000000025
20
17.3797199999999989
11
82.7977829999999955
21
17.3797229999999985
0
LINE
8
BLACK
6
CONTINUOUS
10
82.7977829999999955
20
17.3797229999999985
11
85.8109099999999927
21
16.8480050000000006
0
LINE
8
BLACK
6
CONTINUOUS
10
85.8109099999999927
20
16.8480050000000006
11
85.8110259999999982
21
16.8479600000000005
0
LINE
8
BLACK
6
CONTINUOUS
10
85.8110259999999982
20
16.8479600000000005
11
85.8111469999999912
21
16.847960999999998
0
LINE
8
BLACK
6
CONTINUOUS
10
85.8111469999999912
20
16.847960999999998
11
87.3176559999999995
21
16.567069
0
LINE
8
BLACK
6
CONTINUOUS
10
87.3176559999999995
20
16.567069
11
87.3177319999999924
21
16.5670389999999976
0
LINE
8
BLACK
6
CONTINUOUS
10
87.3177319999999924
20
16.5670389999999976
11
87.3178159999999934
21
16.5670389999999976
0
LINE
8
BLACK
6
CONTINUOUS
10
87.3178159999999934
20
16.5670389999999976
11
88.801879999999997
21
16.2802609999999994
0
LINE
8
BLACK
6
CONTINUOUS
10
88.801879999999997
20
16.2802609999999994
11
88.8019579999999991
21
16.2802299999999995
0
LINE
8
BLACK
6
CONTINUOUS
10
88.8019579999999991
20
16.2802299999999995
11
88.8020439999999951
21
16.2802289999999985
0
LINE
8
BLACK
6
CONTINUOUS
10
88.8020439999999951
20
16.2802289999999985
11
90.2566109999999924
21
15.9890539999999994
0
LINE
8
BLACK
6
CONTINUOUS
10
90.2566109999999924
20
15.9890539999999994
11
90.2566929999999985
21
15.98902
0
LINE
8
BLACK
6
CONTINUOUS
10
90.2566929999999985
20
15.98902
11
90.256779999999992
21
15.989018999999999
0
LINE
8
BLACK
6
CONTINUOUS
10
90.256779999999992
20
15.989018999999999
11
91.6772149999999897
21
15.6944559999999989
0
LINE
8
BLACK
6
CONTINUOUS
10
91.6772149999999897
20
15.6944559999999989
11
91.6772989999999908
21
15.6944210000000002
0
LINE
8
BLACK
6
CONTINUOUS
10
91.6772989999999908
20
15.6944210000000002
11
91.6773910000000001
21
15.6944189999999999
0
LINE
8
BLACK
6
CONTINUOUS
10
91.6773910000000001
20
15.6944189999999999
11
93.0342009999999959
21
15.4028849999999995
0
LINE
8
BLACK
6
CONTINUOUS
10
93.0342009999999959
20
15.4028849999999995
11
93.0342879999999894
21
15.4028479999999988
0
LINE
8
BLACK
6
CONTINUOUS
10
93.0342879999999894
20
15.4028479999999988
11
93.0343850000000003
21
15.4028449999999992
0
LINE
8
BLACK
6
CONTINUOUS
10
93.0343850000000003
20
15.4028449999999992
11
94.3470239999999905
21
15.1104219999999998
0
LINE
8
BLACK
6
CONTINUOUS
10
94.3470239999999905
20
15.1104219999999998
11
94.3471159999999998
21
15.1103819999999995
0
LINE
8
BLACK
6
CONTINUOUS
10
94.3471159999999998
20
15.1103819999999995
11
94.3472189999999955
21
15.110377999999999
0
LINE
8
BLACK
6
CONTINUOUS
10
94.3472189999999955
20
15.110377999999999
11
95.5676939999999888
21
14.8282479999999985
0
LINE
8
BLACK
6
CONTINUOUS
10
95.5676939999999888
20
14.8282479999999985
11
95.5677929999999947
21
14.8282039999999995
0
LINE
8
BLACK
6
CONTINUOUS
10
95.5677929999999947
20
14.8282039999999995
11
95.5679019999999895
21
14.8281989999999997
0
LINE
8
BLACK
6
CONTINUOUS
10
95.5679019999999895
20
14.8281989999999997
11
96.7369909999999891
21
14.5474029999999992
0
LINE
8
BLACK
6
CONTINUOUS
10
96.7369909999999891
20
14.5474029999999992
11
96.7370969999999915
21
14.5473539999999986
0
LINE
8
BLACK
6
CONTINUOUS
10
96.7370969999999915
20
14.5473539999999986
11
96.737214999999992
21
14.5473479999999995
0
LINE
8
BLACK
6
CONTINUOUS
10
96.737214999999992
20
14.5473479999999995
11
97.7950919999999968
21
14.2829489999999986
0
LINE
8
BLACK
6
CONTINUOUS
10
97.7950919999999968
20
14.2829489999999986
11
97.7952069999999907
21
14.2828949999999999
0
LINE
8
BLACK
6
CONTINUOUS
10
97.7952069999999907
20
14.2828949999999999
11
97.7953349999999944
21
14.2828869999999988
0
LINE
8
BLACK
6
CONTINUOUS
10
97.7953349999999944
20
14.2828869999999988
11
98.7980939999999919
21
14.0215589999999999
0
LINE
8
BLACK
6
CONTINUOUS
10
98.7980939999999919
20
14.0215589999999999
11
98.7982200000000006
21
14.0214979999999994
0
LINE
8
BLACK
6
CONTINUOUS
10
98.7982200000000006
20
14.0214979999999994
11
98.7983589999999907
21
14.0214879999999997
0
LINE
8
BLACK
6
CONTINUOUS
10
98.7983589999999907
20
14.0214879999999997
11
99.6818459999999931
21
13.7808510000000002
0
LINE
8
BLACK
6
CONTINUOUS
10
99.6818459999999931
20
13.7808510000000002
11
99.6819819999999908
21
13.7807829999999996
0
LINE
8
BLACK
6
CONTINUOUS
10
99.6819819999999908
20
13.7807829999999996
11
99.6821389999999923
21
13.7807699999999986
0
LINE
8
BLACK
6
CONTINUOUS
10
99.6821389999999923
20
13.7807699999999986
11
100.5102490000000017
21
13.5443499999999997
0
LINE
8
BLACK
6
CONTINUOUS
10
100.5102490000000017
20
13.5443499999999997
11
100.5104039999999941
21
13.5442710000000002
0
LINE
8
BLACK
6
CONTINUOUS
10
100.5104039999999941
20
13.5442710000000002
11
100.5105749999999887
21
13.5442539999999987
0
LINE
8
BLACK
6
CONTINUOUS
10
100.5105749999999887
20
13.5442539999999987
11
101.2213659999999891
21
13.3308520000000001
0
LINE
8
BLACK
6
CONTINUOUS
10
101.2213659999999891
20
13.3308520000000001
11
101.2215379999999953
21
13.330760999999999
0
LINE
8
BLACK
6
CONTINUOUS
10
101.2215379999999953
20
13.330760999999999
11
101.2217309999999912
21
13.3307389999999995
0
LINE
8
BLACK
6
CONTINUOUS
10
101.2217309999999912
20
13.3307389999999995
11
101.8798349999999999
21
13.1221259999999997
0
LINE
8
BLACK
6
CONTINUOUS
10
101.8798349999999999
20
13.1221259999999997
11
101.8800260000000009
21
13.1220210000000002
0
LINE
8
BLACK
6
CONTINUOUS
10
101.8800260000000009
20
13.1220210000000002
11
101.8802479999999946
21
13.1219919999999988
0
LINE
8
BLACK
6
CONTINUOUS
10
101.8802479999999946
20
13.1219919999999988
11
102.4304829999999953
21
12.9369949999999996
0
LINE
8
BLACK
6
CONTINUOUS
10
102.4304829999999953
20
12.9369949999999996
11
102.4307009999999991
21
12.936869999999999
0
LINE
8
BLACK
6
CONTINUOUS
10
102.4307009999999991
20
12.936869999999999
11
102.4309539999999998
21
12.936831999999999
0
LINE
8
BLACK
6
CONTINUOUS
10
102.4309539999999998
20
12.936831999999999
11
102.933337999999992
21
12.7567079999999997
0
LINE
8
BLACK
6
CONTINUOUS
10
102.933337999999992
20
12.7567079999999997
11
102.9335880000000003
21
12.7565580000000001
0
LINE
8
BLACK
6
CONTINUOUS
10
102.9335880000000003
20
12.7565580000000001
11
102.9338769999999954
21
12.7565080000000002
0
LINE
8
BLACK
6
CONTINUOUS
10
102.9338769999999954
20
12.7565080000000002
11
103.3424519999999944
21
12.5993059999999986
0
LINE
8
BLACK
6
CONTINUOUS
10
103.3424519999999944
20
12.5993059999999986
11
103.3427389999999946
21
12.599124999999999
0
LINE
8
BLACK
6
CONTINUOUS
10
103.3427389999999946
20
12.599124999999999
11
103.3430759999999964
21
12.5990570000000002
0
LINE
8
BLACK
6
CONTINUOUS
10
103.3430759999999964
20
12.5990570000000002
11
103.7099399999999889
21
12.4464509999999997
0
LINE
8
BLACK
6
CONTINUOUS
10
103.7099399999999889
20
12.4464509999999997
11
103.7102759999999932
21
12.4462259999999993
0
LINE
8
BLACK
6
CONTINUOUS
10
103.7102759999999932
20
12.4462259999999993
11
103.7106679999999983
21
12.4461339999999989
0
LINE
8
BLACK
6
CONTINUOUS
10
103.7106679999999983
20
12.4461339999999989
11
103.999888999999996
21
12.3149119999999996
0
LINE
8
BLACK
6
CONTINUOUS
10
103.999888999999996
20
12.3149119999999996
11
104.000276999999997
21
12.3146339999999999
0
LINE
8
BLACK
6
CONTINUOUS
10
104.000276999999997
20
12.3146339999999999
11
104.0007419999999883
21
12.3145059999999997
0
LINE
8
BLACK
6
CONTINUOUS
10
104.0007419999999883
20
12.3145059999999997
11
104.2549640000000011
21
12.1873649999999998
0
LINE
8
BLACK
6
CONTINUOUS
10
104.2549640000000011
20
12.1873649999999998
11
104.2554209999999983
21
12.187009999999999
0
LINE
8
BLACK
6
CONTINUOUS
10
104.2554209999999983
20
12.187009999999999
11
104.2559709999999882
21
12.186831999999999
0
LINE
8
BLACK
6
CONTINUOUS
10
104.2559709999999882
20
12.186831999999999
11
104.4489879999999999
21
12.0790449999999989
0
LINE
8
BLACK
6
CONTINUOUS
10
104.4489879999999999
20
12.0790449999999989
11
104.4495209999999901
21
12.0785909999999994
0
LINE
8
BLACK
6
CONTINUOUS
10
104.4495209999999901
20
12.0785909999999994
11
104.450177999999994
21
12.0783369999999994
0
LINE
8
BLACK
6
CONTINUOUS
10
104.450177999999994
20
12.0783369999999994
11
104.6148809999999969
21
11.9739939999999994
0
LINE
8
BLACK
6
CONTINUOUS
10
104.6148809999999969
20
11.9739939999999994
11
104.6157059999999888
21
11.9732079999999996
0
LINE
8
BLACK
6
CONTINUOUS
10
104.6157059999999888
20
11.9732079999999996
11
104.6167269999999974
21
11.9727040000000002
0
LINE
8
BLACK
6
CONTINUOUS
10
104.6167269999999974
20
11.9727040000000002
11
104.7942039999999935
21
11.8364409999999989
0
LINE
8
BLACK
6
CONTINUOUS
10
104.7942039999999935
20
11.8364409999999989
11
104.7950790000000012
21
11.8354429999999997
0
LINE
8
BLACK
6
CONTINUOUS
10
104.7950790000000012
20
11.8354429999999997
11
104.7957779999999985
21
11.8351279999999992
0
LINE
8
BLACK
6
CONTINUOUS
10
104.7957779999999985
20
11.8351279999999992
11
104.7957770000000011
21
11.8351279999999992
0
LINE
8
BLACK
6
CONTINUOUS
10
104.7957770000000011
20
11.8351279999999992
11
105.020670999999993
21
11.6113409999999995
0
LINE
8
BLACK
6
CONTINUOUS
10
105.020670999999993
20
11.6113409999999995
11
105.2240059999999886
21
11.3677989999999998
0
LINE
8
BLACK
6
CONTINUOUS
10
105.2240059999999886
20
11.3677989999999998
11
105.4040540000000021
21
11.1065709999999989
0
LINE
8
BLACK
6
CONTINUOUS
10
105.4040540000000021
20
11.1065709999999989
11
105.5592860000000002
21
10.8298740000000002
0
LINE
8
BLACK
6
CONTINUOUS
10
105.5592860000000002
20
10.8298740000000002
11
105.6883830000000017
21
10.5400609999999997
0
LINE
8
BLACK
6
CONTINUOUS
10
105.6883830000000017
20
10.5400609999999997
11
105.7902479999999912
21
10.2395929999999993
0
LINE
8
BLACK
6
CONTINUOUS
10
105.7902479999999912
20
10.2395929999999993
11
105.8640159999999923
21
9.9310219999999987
0
LINE
8
BLACK
6
CONTINUOUS
10
105.8640159999999923
20
9.9310219999999987
11
105.9090599999999966
21
9.6169689999999992
0
LINE
8
BLACK
6
CONTINUOUS
10
105.9090599999999966
20
9.6169689999999992
11
105.9249980000000022
21
9.3001039999999993
0
LINE
8
BLACK
6
CONTINUOUS
10
105.9249980000000022
20
9.3001039999999993
11
105.9249989999999997
21
9.3001039999999993
0
LINE
8
BLACK
6
CONTINUOUS
10
105.9249989999999997
20
9.3001039999999993
11
105.9249859999999899
21
9.300065
0
LINE
8
BLACK
6
CONTINUOUS
10
105.9249859999999899
20
9.300065
11
105.9249989999999997
21
9.2999999999999989
0
LINE
8
BLACK
6
CONTINUOUS
10
105.9249989999999997
20
9.2999999999999989
11
105.9249999999999972
21
-5.6499999999999995
0
LINE
8
BLACK
6
CONTINUOUS
10
105.9249999999999972
20
-5.6499999999999995
11
105.9249999999999972
21
-60.
0
LINE
8
BLACK
6
CONTINUOUS
10
105.9249999999999972
20
-60.
11
105.9078299999999899
21
-60.3713799999999949
0
LINE
8
BLACK
6
CONTINUOUS
10
105.9078299999999899
20
-60.3713799999999949
11
105.856466999999995
21
-60.7395919999999947
0
LINE
8
BLACK
6
CONTINUOUS
10
105.856466999999995
20
-60.7395919999999947
11
105.771347999999989
21
-61.1014939999999953
0
LINE
8
BLACK
6
CONTINUOUS
10
105.771347999999989
20
-61.1014939999999953
11
105.6532009999999957
21
-61.4539979999999986
0
LINE
8
BLACK
6
CONTINUOUS
10
105.6532009999999957
20
-61.4539979999999986
11
105.5030319999999904
21
-61.7940970000000007
0
LINE
8
BLACK
6
CONTINUOUS
10
105.5030319999999904
20
-61.7940970000000007
11
105.3221240000000023
21
-62.1188889999999958
0
LINE
8
BLACK
6
CONTINUOUS
10
105.3221240000000023
20
-62.1188889999999958
11
105.1120189999999894
21
-62.4256039999999999
0
LINE
8
BLACK
6
CONTINUOUS
10
105.1120189999999894
20
-62.4256039999999999
11
104.8745109999999983
21
-62.711624999999998
0
LINE
8
BLACK
6
CONTINUOUS
10
104.8745109999999983
20
-62.711624999999998
11
104.6116249999999894
21
-62.9745109999999997
0
LINE
8
BLACK
6
CONTINUOUS
10
104.6116249999999894
20
-62.9745109999999997
11
104.3256039999999985
21
-63.212018999999998
0
LINE
8
BLACK
6
CONTINUOUS
10
104.3256039999999985
20
-63.212018999999998
11
104.0188890000000015
21
-63.4221239999999966
0
LINE
8
BLACK
6
CONTINUOUS
10
104.0188890000000015
20
-63.4221239999999966
11
103.6940969999999993
21
-63.6030319999999989
0
LINE
8
BLACK
6
CONTINUOUS
10
103.6940969999999993
20
-63.6030319999999989
11
103.35399799999999
21
-63.7532009999999971
0
LINE
8
BLACK
6
CONTINUOUS
10
103.35399799999999
20
-63.7532009999999971
11
103.0014939999999939
21
-63.8713479999999976
0
LINE
8
BLACK
6
CONTINUOUS
10
103.0014939999999939
20
-63.8713479999999976
11
102.6395919999999933
21
-63.9564669999999964
0
LINE
8
BLACK
6
CONTINUOUS
10
102.6395919999999933
20
-63.9564669999999964
11
102.2713799999999935
21
-64.0078299999999984
0
LINE
8
BLACK
6
CONTINUOUS
10
102.2713799999999935
20
-64.0078299999999984
11
101.8999999999999915
21
-64.0249999999999915
0
LINE
8
BLACK
6
CONTINUOUS
10
101.8999999999999915
20
-64.0249999999999915
11
100.6459619999999973
21
-64.0249999999999915
0
LINE
8
BLACK
6
CONTINUOUS
10
100.6459619999999973
20
-64.0249999999999915
11
100.6439960000000013
21
-64.0246089999999981
0
LINE
8
BLACK
6
CONTINUOUS
10
100.6439960000000013
20
-64.0246089999999981
11
100.642793999999995
21
-64.0249999999999915
0
LINE
8
BLACK
6
CONTINUOUS
10
100.642793999999995
20
-64.0249999999999915
11
100.642793999999995
21
-64.0249950000000041
0
LINE
8
BLACK
6
CONTINUOUS
10
100.642793999999995
20
-64.0249950000000041
11
100.5525809999999893
21
-64.0249829999999918
0
LINE
8
BLACK
6
CONTINUOUS
10
100.5525809999999893
20
-64.0249829999999918
11
100.3752179999999896
21
-64.0580889999999954
0
LINE
8
BLACK
6
CONTINUOUS
10
100.3752179999999896
20
-64.0580889999999954
11
100.2069389999999913
21
-64.1231750000000034
0
LINE
8
BLACK
6
CONTINUOUS
10
100.2069389999999913
20
-64.1231750000000034
11
100.0534600000000012
21
-64.2180309999999963
0
LINE
8
BLACK
6
CONTINUOUS
10
100.0534600000000012
20
-64.2180309999999963
11
99.9199899999999985
21
-64.3394370000000038
0
LINE
8
BLACK
6
CONTINUOUS
10
99.9199899999999985
20
-64.3394370000000038
11
99.8110609999999951
21
-64.4832719999999995
0
LINE
8
BLACK
6
CONTINUOUS
10
99.8110609999999951
20
-64.4832719999999995
11
99.7707279999999912
21
-64.5639659999999935
0
LINE
8
BLACK
6
CONTINUOUS
10
99.7707279999999912
20
-64.5639659999999935
11
99.7702850000000012
21
-64.5644139999999993
0
LINE
8
BLACK
6
CONTINUOUS
10
99.7702850000000012
20
-64.5644139999999993
11
99.7699309999999997
21
-64.5654370000000029
0
LINE
8
BLACK
6
CONTINUOUS
10
99.7699309999999997
20
-64.5654370000000029
11
90.6286699999999996
21
-80.1466250000000002
0
LINE
8
BLACK
6
CONTINUOUS
10
90.6286699999999996
20
-80.1466250000000002
11
90.6277529999999985
21
-80.1476550000000003
0
LINE
8
BLACK
6
CONTINUOUS
10
90.6277529999999985
20
-80.1476550000000003
11
90.6275199999999899
21
-80.1484069999999917
0
LINE
8
BLACK
6
CONTINUOUS
10
90.6275199999999899
20
-80.1484069999999917
11
90.6275189999999924
21
-80.1484069999999917
0
LINE
8
BLACK
6
CONTINUOUS
10
90.6275189999999924
20
-80.1484069999999917
11
90.5367569999999944
21
-80.2572490000000016
0
LINE
8
BLACK
6
CONTINUOUS
10
90.5367569999999944
20
-80.2572490000000016
11
90.4298849999999987
21
-80.350324999999998
0
LINE
8
BLACK
6
CONTINUOUS
10
90.4298849999999987
20
-80.350324999999998
11
90.3096079999999972
21
-80.4252779999999916
0
LINE
8
BLACK
6
CONTINUOUS
10
90.3096079999999972
20
-80.4252779999999916
11
90.1789679999999976
21
-80.4802119999999945
0
LINE
8
BLACK
6
CONTINUOUS
10
90.1789679999999976
20
-80.4802119999999945
11
90.0412709999999947
21
-80.5137390000000011
0
LINE
8
BLACK
6
CONTINUOUS
10
90.0412709999999947
20
-80.5137390000000011
11
89.8999999999999915
21
-80.5250099999999946
0
LINE
8
BLACK
6
CONTINUOUS
10
89.8999999999999915
20
-80.5250099999999946
11
89.8999999999999915
21
-80.5249999999999915
0
LINE
8
BLACK
6
CONTINUOUS
10
89.8999999999999915
20
-80.5249999999999915
11
89.8984200000000016
21
-80.524485999999996
0
LINE
8
BLACK
6
CONTINUOUS
10
89.8984200000000016
20
-80.524485999999996
11
89.8958389999999952
21
-80.5249999999999915
0
LINE
8
BLACK
6
CONTINUOUS
10
89.8958389999999952
20
-80.5249999999999915
11
83.6499999999999915
21
-80.5249999999999915
0
LINE
8
BLACK
6
CONTINUOUS
10
83.6499999999999915
20
-80.5249999999999915
11
57.8999999999999986
21
-80.5249999999999915
0
LINE
8
BLACK
6
CONTINUOUS
10
57.8999999999999986
20
-80.5249999999999915
11
57.7502899999999997
21
-80.5249999999999915
0
LINE
8
BLACK
6
CONTINUOUS
10
57.7502899999999997
20
-80.5249999999999915
11
57.453052999999997
21
-80.5610909999999905
0
LINE
8
BLACK
6
CONTINUOUS
10
57.453052999999997
20
-80.5610909999999905
11
57.1623339999999942
21
-80.6327469999999948
0
LINE
8
BLACK
6
CONTINUOUS
10
57.1623339999999942
20
-80.6327469999999948
11
56.8823719999999966
21
-80.7389220000000023
0
LINE
8
BLACK
6
CONTINUOUS
10
56.8823719999999966
20
-80.7389220000000023
11
56.6172479999999965
21
-80.8780699999999939
0
LINE
8
BLACK
6
CONTINUOUS
10
56.6172479999999965
20
-80.8780699999999939
11
56.3708309999999955
21
-81.0481599999999958
0
LINE
8
BLACK
6
CONTINUOUS
10
56.3708309999999955
20
-81.0481599999999958
11
56.1467120000000008
21
-81.2467120000000023
0
LINE
8
BLACK
6
CONTINUOUS
10
56.1467120000000008
20
-81.2467120000000023
11
55.9481599999999943
21
-81.4708309999999898
0
LINE
8
BLACK
6
CONTINUOUS
10
55.9481599999999943
20
-81.4708309999999898
11
55.7780699999999996
21
-81.7172479999999979
0
LINE
8
BLACK
6
CONTINUOUS
10
55.7780699999999996
20
-81.7172479999999979
11
55.6389220000000009
21
-81.982371999999998
0
LINE
8
BLACK
6
CONTINUOUS
10
55.6389220000000009
20
-81.982371999999998
11
55.5327470000000005
21
-82.2623339999999956
0
LINE
8
BLACK
6
CONTINUOUS
10
55.5327470000000005
20
-82.2623339999999956
11
55.4610909999999961
21
-82.5530529999999914
0
LINE
8
BLACK
6
CONTINUOUS
10
55.4610909999999961
20
-82.5530529999999914
11
55.4249999999999972
21
-82.8502900000000011
0
LINE
8
BLACK
6
CONTINUOUS
10
55.4249999999999972
20
-82.8502900000000011
11
55.4249999999999972
21
-83.
0
LINE
8
BLACK
6
CONTINUOUS
10
55.4249999999999972
20
-83.
11
55.4065899999999942
21
-83.304355000000001
0
LINE
8
BLACK
6
CONTINUOUS
10
55.4065899999999942
20
-83.304355000000001
11
55.3516279999999981
21
-83.6042719999999946
0
LINE
8
BLACK
6
CONTINUOUS
10
55.3516279999999981
20
-83.6042719999999946
11
55.2609159999999946
21
-83.8953769999999963
0
LINE
8
BLACK
6
CONTINUOUS
10
55.2609159999999946
20
-83.8953769999999963
11
55.1357759999999999
21
-84.1734259999999921
0
LINE
8
BLACK
6
CONTINUOUS
10
55.1357759999999999
20
-84.1734259999999921
11
54.978034000000001
21
-84.4343629999999905
0
LINE
8
BLACK
6
CONTINUOUS
10
54.978034000000001
20
-84.4343629999999905
11
54.789989999999996
21
-84.6743850000000009
0
LINE
8
BLACK
6
CONTINUOUS
10
54.789989999999996
20
-84.6743850000000009
11
54.5743849999999995
21
-84.8899899999999974
0
LINE
8
BLACK
6
CONTINUOUS
10
54.5743849999999995
20
-84.8899899999999974
11
54.3343629999999962
21
-85.0780340000000024
0
LINE
8
BLACK
6
CONTINUOUS
10
54.3343629999999962
20
-85.0780340000000024
11
54.0734259999999978
21
-85.2357760000000013
0
LINE
8
BLACK
6
CONTINUOUS
10
54.0734259999999978
20
-85.2357760000000013
11
53.7953769999999949
21
-85.3609160000000031
0
LINE
8
BLACK
6
CONTINUOUS
10
53.7953769999999949
20
-85.3609160000000031
11
53.5042720000000003
21
-85.4516279999999995
0
LINE
8
BLACK
6
CONTINUOUS
10
53.5042720000000003
20
-85.4516279999999995
11
53.2043549999999996
21
-85.5065900000000028
0
LINE
8
BLACK
6
CONTINUOUS
10
53.2043549999999996
20
-85.5065900000000028
11
52.8999999999999986
21
-85.5249999999999915
0
LINE
8
BLACK
6
CONTINUOUS
10
52.8999999999999986
20
-85.5249999999999915
11
-8.5999999999999996
21
-85.5249999999999915
0
LINE
8
BLACK
6
CONTINUOUS
10
-8.5999999999999996
20
-85.5249999999999915
11
-8.8643159999999988
21
-85.5076759999999894
0
LINE
8
BLACK
6
CONTINUOUS
10
-8.8643159999999988
20
-85.5076759999999894
11
-9.1241089999999989
21
-85.4560000000000031
0
LINE
8
BLACK
6
CONTINUOUS
10
-9.1241089999999989
20
-85.4560000000000031
11
-9.3749339999999997
21
-85.3708559999999892
0
LINE
8
BLACK
6
CONTINUOUS
10
-9.3749339999999997
20
-85.3708559999999892
11
-9.6124999999999989
21
-85.2537009999999924
0
LINE
8
BLACK
6
CONTINUOUS
10
-9.6124999999999989
20
-85.2537009999999924
11
-9.8327419999999996
21
-85.1065409999999929
0
LINE
8
BLACK
6
CONTINUOUS
10
-9.8327419999999996
20
-85.1065409999999929
11
-10.0318909999999999
21
-84.9318909999999931
0
LINE
8
BLACK
6
CONTINUOUS
10
-10.0318909999999999
20
-84.9318909999999931
11
-10.2065409999999996
21
-84.7327420000000018
0
LINE
8
BLACK
6
CONTINUOUS
10
-10.2065409999999996
20
-84.7327420000000018
11
-10.3537009999999992
21
-84.5125000000000028
0
LINE
8
BLACK
6
CONTINUOUS
10
-10.3537009999999992
20
-84.5125000000000028
11
-10.4708559999999995
21
-84.2749340000000018
0
LINE
8
BLACK
6
CONTINUOUS
10
-10.4708559999999995
20
-84.2749340000000018
11
-10.5559999999999992
21
-84.0241089999999957
0
LINE
8
BLACK
6
CONTINUOUS
10
-10.5559999999999992
20
-84.0241089999999957
11
-10.6076759999999997
21
-83.7643159999999938
0
LINE
8
BLACK
6
CONTINUOUS
10
-10.6076759999999997
20
-83.7643159999999938
11
-10.625
21
-83.5
0
LINE
8
BLACK
6
CONTINUOUS
10
-10.625
20
-83.5
11
-10.625
21
5.7000000000000002
0
LINE
8
BLACK
6
CONTINUOUS
10
-10.625
20
5.7000000000000002
11
-10.6249509999999994
21
5.7002509999999997
0
LINE
8
BLACK
6
CONTINUOUS
10
-10.6249509999999994
20
5.7002509999999997
11
-10.6249950000000002
21
5.7005029999999994
0
LINE
8
BLACK
6
CONTINUOUS
10
-10.6249950000000002
20
5.7005029999999994
11
-10.6144359999999995
21
6.2250439999999996
0
LINE
8
BLACK
6
CONTINUOUS
10
-10.6144359999999995
20
6.2250439999999996
11
-10.6143190000000001
21
6.2255769999999995
0
LINE
8
BLACK
6
CONTINUOUS
10
-10.6143190000000001
20
6.2255769999999995
11
-10.6143909999999995
21
6.2261139999999999
0
LINE
8
BLACK
6
CONTINUOUS
10
-10.6143909999999995
20
6.2261139999999999
11
-10.5831920000000004
21
6.7210109999999998
0
LINE
8
BLACK
6
CONTINUOUS
10
-10.5831920000000004
20
6.7210109999999998
11
-10.5830419999999989
21
6.7215780000000001
0
LINE
8
BLACK
6
CONTINUOUS
10
-10.5830419999999989
20
6.7215780000000001
11
-10.5830929999999999
21
6.7221639999999994
0
LINE
8
BLACK
6
CONTINUOUS
10
-10.5830929999999999
20
6.7221639999999994
11
-10.5319699999999994
21
7.1883689999999998
0
LINE
8
BLACK
6
CONTINUOUS
10
-10.5319699999999994
20
7.1883689999999998
11
-10.5317799999999995
21
7.1889729999999998
0
LINE
8
BLACK
6
CONTINUOUS
10
-10.5317799999999995
20
7.1889729999999998
11
-10.531803
21
7.189603
0
LINE
8
BLACK
6
CONTINUOUS
10
-10.531803
20
7.189603
11
-10.4614729999999998
21
7.628063
0
LINE
8
BLACK
6
CONTINUOUS
10
-10.4614729999999998
20
7.628063
11
-10.4612379999999998
21
7.6286969999999998
0
LINE
8
BLACK
6
CONTINUOUS
10
-10.4612379999999998
20
7.6286969999999998
11
-10.4612269999999992
21
7.6293759999999997
0
LINE
8
BLACK
6
CONTINUOUS
10
-10.4612269999999992
20
7.6293759999999997
11
-10.3724039999999995
21
8.0410389999999996
0
LINE
8
BLACK
6
CONTINUOUS
10
-10.3724039999999995
20
8.0410389999999996
11
-10.3721160000000001
21
8.0417039999999993
0
LINE
8
BLACK
6
CONTINUOUS
10
-10.3721160000000001
20
8.0417039999999993
11
-10.3720629999999989
21
8.0424249999999997
0
LINE
8
BLACK
6
CONTINUOUS
10
-10.3720629999999989
20
8.0424249999999997
11
-10.2654639999999997
21
8.4282409999999999
0
LINE
8
BLACK
6
CONTINUOUS
10
-10.2654639999999997
20
8.4282409999999999
11
-10.2651199999999996
21
8.4289269999999998
0
LINE
8
BLACK
6
CONTINUOUS
10
-10.2651199999999996
20
8.4289269999999998
11
-10.2650170000000003
21
8.4296860000000002
0
LINE
8
BLACK
6
CONTINUOUS
10
-10.2650170000000003
20
8.4296860000000002
11
-10.1413589999999996
21
8.7906040000000001
0
LINE
8
BLACK
6
CONTINUOUS
10
-10.1413589999999996
20
8.7906040000000001
11
-10.1409549999999999
21
8.7912999999999997
0
LINE
8
BLACK
6
CONTINUOUS
10
-10.1409549999999999
20
8.7912999999999997
11
-10.1407959999999999
21
8.7920929999999995
0
LINE
8
BLACK
6
CONTINUOUS
10
-10.1407959999999999
20
8.7920929999999995
11
-10.0007939999999991
21
9.1290619999999993
0
LINE
8
BLACK
6
CONTINUOUS
10
-10.0007939999999991
20
9.1290619999999993
11
-10.0003259999999994
21
9.1297629999999987
0
LINE
8
BLACK
6
CONTINUOUS
10
-10.0003259999999994
20
9.1297629999999987
11
-10.0001059999999988
21
9.1305730000000001
0
LINE
8
BLACK
6
CONTINUOUS
10
-10.0001059999999988
20
9.1305730000000001
11
-9.8444769999999995
21
9.4445399999999999
0
LINE
8
BLACK
6
CONTINUOUS
10
-9.8444769999999995
20
9.4445399999999999
11
-9.8439479999999993
21
9.4452280000000002
0
LINE
8
BLACK
6
CONTINUOUS
10
-9.8439479999999993
20
9.4452280000000002
11
-9.8436640000000004
21
9.4460479999999993
0
LINE
8
BLACK
6
CONTINUOUS
10
-9.8436640000000004
20
9.4460479999999993
11
-9.6731230000000004
21
9.7379639999999998
0
LINE
8
BLACK
6
CONTINUOUS
10
-9.6731230000000004
20
9.7379639999999998
11
-9.6725359999999991
21
9.7386280000000003
0
LINE
8
BLACK
6
CONTINUOUS
10
-9.6725359999999991
20
9.7386280000000003
11
-9.6721889999999995
21
9.7394409999999993
0
LINE
8
BLACK
6
CONTINUOUS
10
-9.6721889999999995
20
9.7394409999999993
11
-9.4874530000000004
21
10.0102539999999998
0
LINE
8
BLACK
6
CONTINUOUS
10
-9.4874530000000004
20
10.0102539999999998
11
-9.4868189999999988
21
10.0108769999999989
0
LINE
8
BLACK
6
CONTINUOUS
10
-9.4868189999999988
20
10.0108769999999989
11
-9.4864110000000004
21
10.011673
0
LINE
8
BLACK
6
CONTINUOUS
10
-9.4864110000000004
20
10.011673
11
-9.2881959999999992
21
10.2623309999999996
0
LINE
8
BLACK
6
CONTINUOUS
10
-9.2881959999999992
20
10.2623309999999996
11
-9.2875209999999999
21
10.2629070000000002
0
LINE
8
BLACK
6
CONTINUOUS
10
-9.2875209999999999
20
10.2629070000000002
11
-9.2870619999999988
21
10.2636659999999988
0
LINE
8
BLACK
6
CONTINUOUS
10
-9.2870619999999988
20
10.2636659999999988
11
-9.0760839999999998
21
10.4951179999999997
0
LINE
8
BLACK
6
CONTINUOUS
10
-9.0760839999999998
20
10.4951179999999997
11
-9.0753819999999994
21
10.4956359999999993
0
LINE
8
BLACK
6
CONTINUOUS
10
-9.0753819999999994
20
10.4956359999999993
11
-9.0748829999999998
21
10.4963470000000001
0
LINE
8
BLACK
6
CONTINUOUS
10
-9.0748829999999998
20
10.4963470000000001
11
-8.851856999999999
21
10.7095439999999993
0
LINE
8
BLACK
6
CONTINUOUS
10
-8.851856999999999
20
10.7095439999999993
11
-8.8511439999999997
21
10.7099979999999988
0
LINE
8
BLACK
6
CONTINUOUS
10
-8.8511439999999997
20
10.7099979999999988
11
-8.8506149999999995
21
10.7106539999999999
0
LINE
8
BLACK
6
CONTINUOUS
10
-8.8506149999999995
20
10.7106539999999999
11
-8.6162589999999994
21
10.9065429999999992
0
LINE
8
BLACK
6
CONTINUOUS
10
-8.6162589999999994
20
10.9065429999999992
11
-8.615551
21
10.9069299999999991
0
LINE
8
BLACK
6
CONTINUOUS
10
-8.615551
20
10.9069299999999991
11
-8.615003999999999
21
10.9075259999999989
0
LINE
8
BLACK
6
CONTINUOUS
10
-8.615003999999999
20
10.9075259999999989
11
-8.3700329999999994
21
11.0870549999999994
0
LINE
8
BLACK
6
CONTINUOUS
10
-8.3700329999999994
20
11.0870549999999994
11
-8.3693390000000001
21
11.0873790000000003
0
LINE
8
BLACK
6
CONTINUOUS
10
-8.3693390000000001
20
11.0873790000000003
11
-8.3687899999999988
21
11.0879089999999998
0
LINE
8
BLACK
6
CONTINUOUS
10
-8.3687899999999988
20
11.0879089999999998
11
-8.1139200000000002
21
11.2520279999999993
0
LINE
8
BLACK
6
CONTINUOUS
10
-8.1139200000000002
20
11.2520279999999993
11
-8.1132559999999998
21
11.2522909999999996
0
LINE
8
BLACK
6
CONTINUOUS
10
-8.1132559999999998
20
11.2522909999999996
11
-8.1127120000000001
21
11.2527589999999993
0
LINE
8
BLACK
6
CONTINUOUS
10
-8.1127120000000001
20
11.2527589999999993
11
-7.8486589999999996
21
11.4024159999999988
0
LINE
8
BLACK
6
CONTINUOUS
10
-7.8486589999999996
20
11.4024159999999988
11
-7.8480279999999993
21
11.4026249999999987
0
LINE
8
BLACK
6
CONTINUOUS
10
-7.8480279999999993
20
11.4026249999999987
11
-7.847505
21
11.4030299999999993
0
LINE
8
BLACK
6
CONTINUOUS
10
-7.847505
20
11.4030299999999993
11
-7.574986
21
11.5391750000000002
0
LINE
8
BLACK
6
CONTINUOUS
10
-7.574986
20
11.5391750000000002
11
-7.5743989999999997
21
11.5393359999999987
0
LINE
8
BLACK
6
CONTINUOUS
10
-7.5743989999999997
20
11.5393359999999987
11
-7.5738989999999999
21
11.5396859999999997
0
LINE
8
BLACK
6
CONTINUOUS
10
-7.5738989999999999
20
11.5396859999999997
11
-7.2936309999999995
21
11.6632669999999994
0
LINE
8
BLACK
6
CONTINUOUS
10
-7.2936309999999995
20
11.6632669999999994
11
-7.2930909999999995
21
11.6633879999999994
0
LINE
8
BLACK
6
CONTINUOUS
10
-7.2930909999999995
20
11.6633879999999994
11
-7.2926219999999997
21
11.6636860000000002
0
LINE
8
BLACK
6
CONTINUOUS
10
-7.2926219999999997
20
11.6636860000000002
11
-7.0053169999999998
21
11.7756530000000001
0
LINE
8
BLACK
6
CONTINUOUS
10
-7.0053169999999998
20
11.7756530000000001
11
-7.004823
21
11.775741
0
LINE
8
BLACK
6
CONTINUOUS
10
-7.004823
20
11.775741
11
-7.0043919999999993
21
11.7759919999999987
0
LINE
8
BLACK
6
CONTINUOUS
10
-7.0043919999999993
20
11.7759919999999987
11
-6.7107709999999994
21
11.8772919999999989
0
LINE
8
BLACK
6
CONTINUOUS
10
-6.7107709999999994
20
11.8772919999999989
11
-6.7103279999999996
21
11.8773529999999994
0
LINE
8
BLACK
6
CONTINUOUS
10
-6.7103279999999996
20
11.8773529999999994
11
-6.7099339999999996
21
11.8775639999999996
0
LINE
8
BLACK
6
CONTINUOUS
10
-6.7099339999999996
20
11.8775639999999996
11
-6.4107089999999998
21
11.9691469999999995
0
LINE
8
BLACK
6
CONTINUOUS
10
-6.4107089999999998
20
11.9691469999999995
11
-6.4103189999999994
21
11.9691869999999998
0
LINE
8
BLACK
6
CONTINUOUS
10
-6.4103189999999994
20
11.9691869999999998
11
-6.4099619999999993
21
11.9693639999999988
0
LINE
8
BLACK
6
CONTINUOUS
10
-6.4099619999999993
20
11.9693639999999988
11
-6.1058509999999995
21
12.0521779999999996
0
LINE
8
BLACK
6
CONTINUOUS
10
-6.1058509999999995
20
12.0521779999999996
11
-6.1053549999999994
21
12.0522130000000001
0
LINE
8
BLACK
6
CONTINUOUS
10
-6.1053549999999994
20
12.0522130000000001
11
-6.1049049999999996
21
12.0524149999999999
0
LINE
8
BLACK
6
CONTINUOUS
10
-6.1049049999999996
20
12.0524149999999999
11
-5.4848889999999999
21
12.1955340000000003
0
LINE
8
BLACK
6
CONTINUOUS
10
-5.4848889999999999
20
12.1955340000000003
11
-5.4843869999999999
21
12.195549999999999
0
LINE
8
BLACK
6
CONTINUOUS
10
-5.4843869999999999
20
12.195549999999999
11
-5.4839159999999998
21
12.1957389999999997
0
LINE
8
BLACK
6
CONTINUOUS
10
-5.4839159999999998
20
12.1957389999999997
11
-4.8529489999999997
21
12.3151700000000002
0
LINE
8
BLACK
6
CONTINUOUS
10
-4.8529489999999997
20
12.3151700000000002
11
-4.8526189999999998
21
12.3151669999999989
0
LINE
8
BLACK
6
CONTINUOUS
10
-4.8526189999999998
20
12.3151669999999989
11
-4.8523079999999998
21
12.3152829999999991
0
LINE
8
BLACK
6
CONTINUOUS
10
-4.8523079999999998
20
12.3152829999999991
11
-4.2161179999999998
21
12.4186160000000001
0
LINE
8
BLACK
6
CONTINUOUS
10
-4.2161179999999998
20
12.4186160000000001
11
-4.2159519999999997
21
12.4186110000000003
0
LINE
8
BLACK
6
CONTINUOUS
10
-4.2159519999999997
20
12.4186110000000003
11
-4.2157989999999996
21
12.418664999999999
0
LINE
8
BLACK
6
CONTINUOUS
10
-4.2157989999999996
20
12.418664999999999
11
-3.5801149999999997
21
12.5134919999999994
0
LINE
8
BLACK
6
CONTINUOUS
10
-3.5801149999999997
20
12.5134919999999994
11
-3.5800889999999996
21
12.5134910000000001
0
LINE
8
BLACK
6
CONTINUOUS
10
-3.5800889999999996
20
12.5134910000000001
11
-3.580063
21
12.5134999999999987
0
LINE
8
BLACK
6
CONTINUOUS
10
-3.580063
20
12.5134999999999987
11
-3.5036359999999998
21
12.5247339999999987
0
LINE
8
BLACK
6
CONTINUOUS
10
-3.5036359999999998
20
12.5247339999999987
11
-3.5033999999999996
21
12.5247229999999998
0
LINE
8
BLACK
6
CONTINUOUS
10
-3.5033999999999996
20
12.5247229999999998
11
-3.5031729999999999
21
12.5247979999999988
0
LINE
8
BLACK
6
CONTINUOUS
10
-3.5031729999999999
20
12.5247979999999988
11
47.2962139999999991
21
19.0247199999999985
0
LINE
8
BLACK
6
CONTINUOUS
10
47.2962139999999991
20
19.0247199999999985
11
48.1981699999999975
21
19.1855459999999987
0
LINE
8
BLACK
6
CONTINUOUS
10
48.1981699999999975
20
19.1855459999999987
11
48.1986789999999985
21
19.185535999999999
0
LINE
8
BLACK
6
CONTINUOUS
10
48.1986789999999985
20
19.185535999999999
11
48.1991599999999991
21
19.1857019999999991
0
LINE
8
BLACK
6
CONTINUOUS
10
48.1991599999999991
20
19.1857019999999991
11
49.1511129999999952
21
19.3162909999999997
0
LINE
8
BLACK
6
CONTINUOUS
10
49.1511129999999952
20
19.3162909999999997
11
49.1515909999999963
21
19.3162629999999993
0
LINE
8
BLACK
6
CONTINUOUS
10
49.1515909999999963
20
19.3162629999999993
11
49.1520519999999976
21
19.3164020000000001
0
LINE
8
BLACK
6
CONTINUOUS
10
49.1520519999999976
20
19.3164020000000001
11
50.1593139999999948
21
19.4159520000000008
0
LINE
8
BLACK
6
CONTINUOUS
10
50.1593139999999948
20
19.4159520000000008
11
50.1597599999999986
21
19.4159089999999992
0
LINE
8
BLACK
6
CONTINUOUS
10
50.1597599999999986
20
19.4159089999999992
11
50.1601929999999996
21
19.4160229999999991
0
LINE
8
BLACK
6
CONTINUOUS
10
50.1601929999999996
20
19.4160229999999991
11
51.2315729999999974
21
19.4838559999999994
0
LINE
8
BLACK
6
CONTINUOUS
10
51.2315729999999974
20
19.4838559999999994
11
51.2319809999999976
21
19.4838020000000007
0
LINE
8
BLACK
6
CONTINUOUS
10
51.2319809999999976
20
19.4838020000000007
11
51.2323820000000012
21
19.4838939999999994
0
LINE
8
BLACK
6
CONTINUOUS
10
51.2323820000000012
20
19.4838939999999994
11
52.382678999999996
21
19.5194009999999984
0
LINE
8
BLACK
6
CONTINUOUS
10
52.382678999999996
20
19.5194009999999984
11
52.3829679999999982
21
19.5193529999999988
0
LINE
8
BLACK
6
CONTINUOUS
10
52.3829679999999982
20
19.5193529999999988
11
52.3832549999999983
21
19.5194119999999991
0
LINE
8
BLACK
6
CONTINUOUS
10
52.3832549999999983
20
19.5194119999999991
11
53.0998049999999964
21
19.5249989999999976
0
LINE
8
BLACK
6
CONTINUOUS
10
53.0998049999999964
20
19.5249989999999976
11
53.0999009999999956
21
19.5249810000000004
0
LINE
8
BLACK
6
CONTINUOUS
10
53.0999009999999956
20
19.5249810000000004
11
53.0999999999999943
21
19.5249999999999986
0
LINE
8
BLACK
6
CONTINUOUS
10
53.0999999999999943
20
19.5249999999999986
11
63.2999999999999972
21
19.5249999999999986
0
LINE
8
BLACK
6
CONTINUOUS
10
63.2999999999999972
20
19.5249999999999986
11
63.3001900000000006
21
19.5249629999999996
0
LINE
8
BLACK
6
CONTINUOUS
10
53.1000669999999957
20
19.4749999999999979
11
52.3839380000000006
21
19.469417
0
LINE
8
BLACK
6
CONTINUOUS
10
52.3839380000000006
20
19.469417
11
51.2343289999999953
21
19.4339309999999976
0
LINE
8
BLACK
6
CONTINUOUS
10
51.2343289999999953
20
19.4339309999999976
11
50.1637969999999953
21
19.3661519999999996
0
LINE
8
BLACK
6
CONTINUOUS
10
50.1637969999999953
20
19.3661519999999996
11
49.157429999999998
21
19.2666900000000005
0
LINE
8
BLACK
6
CONTINUOUS
10
49.157429999999998
20
19.2666900000000005
11
48.2064589999999953
21
19.1362360000000002
0
LINE
8
BLACK
6
CONTINUOUS
10
48.2064589999999953
20
19.1362360000000002
11
47.3043890000000005
21
18.9753879999999988
0
LINE
8
BLACK
6
CONTINUOUS
10
47.3043890000000005
20
18.9753879999999988
11
47.303764000000001
21
18.975400999999998
0
LINE
8
BLACK
6
CONTINUOUS
10
47.303764000000001
20
18.975400999999998
11
47.303173000000001
21
18.9752019999999995
0
LINE
8
BLACK
6
CONTINUOUS
10
47.303173000000001
20
18.9752019999999995
11
-3.4966219999999999
21
12.4752289999999988
0
LINE
8
BLACK
6
CONTINUOUS
10
-3.4966219999999999
20
12.4752289999999988
11
-3.5727910000000001
21
12.4640319999999996
0
LINE
8
BLACK
6
CONTINUOUS
10
-3.5727910000000001
20
12.4640319999999996
11
-3.5727919999999997
21
12.4640329999999988
0
LINE
8
BLACK
6
CONTINUOUS
10
-3.5727919999999997
20
12.4640329999999988
11
-4.2082090000000001
21
12.3692449999999994
0
LINE
8
BLACK
6
CONTINUOUS
10
-4.2082090000000001
20
12.3692449999999994
11
-4.8439749999999995
21
12.265981
0
LINE
8
BLACK
6
CONTINUOUS
10
-4.8439749999999995
20
12.265981
11
-5.474145
21
12.1467010000000002
0
LINE
8
BLACK
6
CONTINUOUS
10
-5.474145
20
12.1467010000000002
11
-6.0931629999999997
21
12.0038119999999999
0
LINE
8
BLACK
6
CONTINUOUS
10
-6.0931629999999997
20
12.0038119999999999
11
-6.396471
21
11.9212169999999986
0
LINE
8
BLACK
6
CONTINUOUS
10
-6.396471
20
11.9212169999999986
11
-6.6948789999999994
21
11.8298839999999998
0
LINE
8
BLACK
6
CONTINUOUS
10
-6.6948789999999994
20
11.8298839999999998
11
-6.9876059999999995
21
11.7288920000000001
0
LINE
8
BLACK
6
CONTINUOUS
10
-6.9876059999999995
20
11.7288920000000001
11
-7.2739689999999992
21
11.6172919999999991
0
LINE
8
BLACK
6
CONTINUOUS
10
-7.2739689999999992
20
11.6172919999999991
11
-7.5531639999999998
21
11.4941849999999999
0
LINE
8
BLACK
6
CONTINUOUS
10
-7.5531639999999998
20
11.4941849999999999
11
-7.8245779999999998
21
11.3585929999999991
0
LINE
8
BLACK
6
CONTINUOUS
10
-7.8245779999999998
20
11.3585929999999991
11
-8.0874509999999997
21
11.2096039999999988
0
LINE
8
BLACK
6
CONTINUOUS
10
-8.0874509999999997
20
11.2096039999999988
11
-8.3410799999999998
21
11.046284
0
LINE
8
BLACK
6
CONTINUOUS
10
-8.3410799999999998
20
11.046284
11
-8.5848169999999993
21
10.8676589999999997
0
LINE
8
BLACK
6
CONTINUOUS
10
-8.5848169999999993
20
10.8676589999999997
11
-8.817914
21
10.672820999999999
0
LINE
8
BLACK
6
CONTINUOUS
10
-8.817914
20
10.672820999999999
11
-9.0397059999999989
21
10.4608049999999988
0
LINE
8
BLACK
6
CONTINUOUS
10
-9.0397059999999989
20
10.4608049999999988
11
-9.2495189999999994
21
10.2306309999999989
0
LINE
8
BLACK
6
CONTINUOUS
10
-9.2495189999999994
20
10.2306309999999989
11
-9.4466450000000002
21
9.9813499999999991
0
LINE
8
BLACK
6
CONTINUOUS
10
-9.4466450000000002
20
9.9813499999999991
11
-9.6303900000000002
21
9.7119920000000004
0
LINE
8
BLACK
6
CONTINUOUS
10
-9.6303900000000002
20
9.7119920000000004
11
-9.8000600000000002
21
9.4215660000000003
0
LINE
8
BLACK
6
CONTINUOUS
10
-9.8000600000000002
20
9.4215660000000003
11
-9.954936
21
9.1091179999999987
0
LINE
8
BLACK
6
CONTINUOUS
10
-9.954936
20
9.1091179999999987
11
-10.094320999999999
21
8.7736349999999987
0
LINE
8
BLACK
6
CONTINUOUS
10
-10.094320999999999
20
8.7736349999999987
11
-10.2174709999999997
21
8.4141999999999992
0
LINE
8
BLACK
6
CONTINUOUS
10
-10.2174709999999997
20
8.4141999999999992
11
-10.323677
21
8.0298059999999989
0
LINE
8
BLACK
6
CONTINUOUS
10
-10.323677
20
8.0298059999999989
11
-10.41221
21
7.6194850000000001
0
LINE
8
BLACK
6
CONTINUOUS
10
-10.41221
20
7.6194850000000001
11
-10.4823349999999991
21
7.1823099999999993
0
LINE
8
BLACK
6
CONTINUOUS
10
-10.4823349999999991
20
7.1823099999999993
11
-10.5333290000000002
21
6.7172799999999997
0
LINE
8
BLACK
6
CONTINUOUS
10
-10.5333290000000002
20
6.7172799999999997
11
-10.5644569999999991
21
6.2235149999999999
0
LINE
8
BLACK
6
CONTINUOUS
10
-10.5644569999999991
20
6.2235149999999999
11
-10.5749999999999993
21
5.6997459999999993
0
LINE
8
BLACK
6
CONTINUOUS
10
-10.5749999999999993
20
5.6997459999999993
11
-10.5749999999999993
21
-83.5
0
LINE
8
BLACK
6
CONTINUOUS
10
-10.5749999999999993
20
-83.5
11
-10.5749999999999993
21
-83.6294479999999965
0
LINE
8
BLACK
6
CONTINUOUS
10
-10.5749999999999993
20
-83.6294479999999965
11
-10.541207
21
-83.8861299999999943
0
LINE
8
BLACK
6
CONTINUOUS
10
-10.541207
20
-83.8861299999999943
11
-10.4741999999999997
21
-84.1362049999999897
0
LINE
8
BLACK
6
CONTINUOUS
10
-10.4741999999999997
20
-84.1362049999999897
11
-10.3751249999999988
21
-84.3753949999999975
0
LINE
8
BLACK
6
CONTINUOUS
10
-10.3751249999999988
20
-84.3753949999999975
11
-10.2456759999999996
21
-84.5996059999999943
0
LINE
8
BLACK
6
CONTINUOUS
10
-10.2456759999999996
20
-84.5996059999999943
11
-10.0880700000000001
21
-84.8050020000000018
0
LINE
8
BLACK
6
CONTINUOUS
10
-10.0880700000000001
20
-84.8050020000000018
11
-9.9050019999999996
21
-84.9880699999999933
0
LINE
8
BLACK
6
CONTINUOUS
10
-9.9050019999999996
20
-84.9880699999999933
11
-9.6996059999999993
21
-85.1456759999999946
0
LINE
8
BLACK
6
CONTINUOUS
10
-9.6996059999999993
20
-85.1456759999999946
11
-9.4753949999999989
21
-85.2751250000000027
0
LINE
8
BLACK
6
CONTINUOUS
10
-9.4753949999999989
20
-85.2751250000000027
11
-9.236205
21
-85.3742000000000019
0
LINE
8
BLACK
6
CONTINUOUS
10
-9.236205
20
-85.3742000000000019
11
-8.9861299999999993
21
-85.4412069999999915
0
LINE
8
BLACK
6
CONTINUOUS
10
-8.9861299999999993
20
-85.4412069999999915
11
-8.7294479999999997
21
-85.4749999999999943
0
LINE
8
BLACK
6
CONTINUOUS
10
-8.7294479999999997
20
-85.4749999999999943
11
-8.5999999999999996
21
-85.4749999999999943
0
LINE
8
BLACK
6
CONTINUOUS
10
-8.5999999999999996
20
-85.4749999999999943
11
52.8999999999999986
21
-85.4749999999999943
0
LINE
8
BLACK
6
CONTINUOUS
10
52.8999999999999986
20
-85.4749999999999943
11
53.0497099999999975
21
-85.4749999999999943
0
LINE
8
BLACK
6
CONTINUOUS
10
53.0497099999999975
20
-85.4749999999999943
11
53.3469470000000001
21
-85.4389089999999953
0
LINE
8
BLACK
6
CONTINUOUS
10
53.3469470000000001
20
-85.4389089999999953
11
53.6376659999999958
21
-85.3672529999999909
0
LINE
8
BLACK
6
CONTINUOUS
10
53.6376659999999958
20
-85.3672529999999909
11
53.9176280000000006
21
-85.2610779999999977
0
LINE
8
BLACK
6
CONTINUOUS
10
53.9176280000000006
20
-85.2610779999999977
11
54.1827520000000007
21
-85.1219299999999919
0
LINE
8
BLACK
6
CONTINUOUS
10
54.1827520000000007
20
-85.1219299999999919
11
54.4291689999999946
21
-84.95183999999999
0
LINE
8
BLACK
6
CONTINUOUS
10
54.4291689999999946
20
-84.95183999999999
11
54.6532879999999963
21
-84.7532879999999977
0
LINE
8
BLACK
6
CONTINUOUS
10
54.6532879999999963
20
-84.7532879999999977
11
54.8518399999999957
21
-84.529168999999996
0
LINE
8
BLACK
6
CONTINUOUS
10
54.8518399999999957
20
-84.529168999999996
11
55.0219299999999976
21
-84.2827520000000021
0
LINE
8
BLACK
6
CONTINUOUS
10
55.0219299999999976
20
-84.2827520000000021
11
55.1610779999999963
21
-84.017628000000002
0
LINE
8
BLACK
6
CONTINUOUS
10
55.1610779999999963
20
-84.017628000000002
11
55.2672529999999966
21
-83.7376659999999902
0
LINE
8
BLACK
6
CONTINUOUS
10
55.2672529999999966
20
-83.7376659999999902
11
55.338909000000001
21
-83.4469469999999944
0
LINE
8
BLACK
6
CONTINUOUS
10
55.338909000000001
20
-83.4469469999999944
11
55.375
21
-83.1497099999999989
0
LINE
8
BLACK
6
CONTINUOUS
10
55.375
20
-83.1497099999999989
11
55.375
21
-83.
0
LINE
8
BLACK
6
CONTINUOUS
10
55.375
20
-83.
11
55.3934099999999958
21
-82.695644999999999
0
LINE
8
BLACK
6
CONTINUOUS
10
55.3934099999999958
20
-82.695644999999999
11
55.4483719999999991
21
-82.3957279999999912
0
LINE
8
BLACK
6
CONTINUOUS
10
55.4483719999999991
20
-82.3957279999999912
11
55.5390839999999955
21
-82.1046229999999895
0
LINE
8
BLACK
6
CONTINUOUS
10
55.5390839999999955
20
-82.1046229999999895
11
55.6642239999999973
21
-81.8265739999999937
0
LINE
8
BLACK
6
CONTINUOUS
10
55.6642239999999973
20
-81.8265739999999937
11
55.8219659999999962
21
-81.5656369999999953
0
LINE
8
BLACK
6
CONTINUOUS
10
55.8219659999999962
20
-81.5656369999999953
11
56.0100099999999941
21
-81.3256149999999991
0
LINE
8
BLACK
6
CONTINUOUS
10
56.0100099999999941
20
-81.3256149999999991
11
56.2256149999999977
21
-81.1100100000000026
0
LINE
8
BLACK
6
CONTINUOUS
10
56.2256149999999977
20
-81.1100100000000026
11
56.465637000000001
21
-80.9219659999999976
0
LINE
8
BLACK
6
CONTINUOUS
10
56.465637000000001
20
-80.9219659999999976
11
56.7265739999999994
21
-80.7642239999999987
0
LINE
8
BLACK
6
CONTINUOUS
10
56.7265739999999994
20
-80.7642239999999987
11
57.0046229999999952
21
-80.6390839999999969
0
LINE
8
BLACK
6
CONTINUOUS
10
57.0046229999999952
20
-80.6390839999999969
11
57.2957279999999969
21
-80.5483720000000005
0
LINE
8
BLACK
6
CONTINUOUS
10
57.2957279999999969
20
-80.5483720000000005
11
57.5956449999999975
21
-80.4934099999999972
0
LINE
8
BLACK
6
CONTINUOUS
10
57.5956449999999975
20
-80.4934099999999972
11
57.8999999999999986
21
-80.4749999999999943
0
LINE
8
BLACK
6
CONTINUOUS
10
57.8999999999999986
20
-80.4749999999999943
11
83.6499999999999915
21
-80.4749999999999943
0
LINE
8
BLACK
6
CONTINUOUS
10
83.6499999999999915
20
-80.4749999999999943
11
89.8958389999999952
21
-80.4749999999999943
0
LINE
8
BLACK
6
CONTINUOUS
10
89.8958389999999952
20
-80.4749999999999943
11
89.8984200000000016
21
-80.4755129999999923
0
LINE
8
BLACK
6
CONTINUOUS
10
89.8984200000000016
20
-80.4755129999999923
11
89.8999999999999915
21
-80.4749999999999943
0
LINE
8
BLACK
6
CONTINUOUS
10
89.8999999999999915
20
-80.4749999999999943
11
89.8999999999999915
21
-80.4750099999999975
0
LINE
8
BLACK
6
CONTINUOUS
10
89.8999999999999915
20
-80.4750099999999975
11
89.9805879999999974
21
-80.4749829999999946
0
LINE
8
BLACK
6
CONTINUOUS
10
89.9805879999999974
20
-80.4749829999999946
11
90.1388299999999987
21
-80.4443739999999963
0
LINE
8
BLACK
6
CONTINUOUS
10
90.1388299999999987
20
-80.4443739999999963
11
90.2883810000000011
21
-80.3842709999999983
0
LINE
8
BLACK
6
CONTINUOUS
10
90.2883810000000011
20
-80.3842709999999983
11
90.4237949999999984
21
-80.2968609999999927
0
LINE
8
BLACK
6
CONTINUOUS
10
90.4237949999999984
20
-80.2968609999999927
11
90.5401459999999929
21
-80.1853249999999917
0
LINE
8
BLACK
6
CONTINUOUS
10
90.5401459999999929
20
-80.1853249999999917
11
90.5860849999999971
21
-80.1203989999999919
0
LINE
8
BLACK
6
CONTINUOUS
10
90.5860849999999971
20
-80.1203989999999919
11
99.7268049999999988
21
-64.5401360000000039
0
LINE
8
BLACK
6
CONTINUOUS
10
99.7268049999999988
20
-64.5401360000000039
11
99.7270800000000008
21
-64.5398259999999908
0
LINE
8
BLACK
6
CONTINUOUS
10
99.7270800000000008
20
-64.5398259999999908
11
99.8096489999999932
21
-64.4029280000000028
0
LINE
8
BLACK
6
CONTINUOUS
10
99.8096489999999932
20
-64.4029280000000028
11
99.9140900000000016
21
-64.2791550000000029
0
LINE
8
BLACK
6
CONTINUOUS
10
99.9140900000000016
20
-64.2791550000000029
11
100.036722999999995
21
-64.1733770000000021
0
LINE
8
BLACK
6
CONTINUOUS
10
100.036722999999995
20
-64.1733770000000021
11
100.17448499999999
21
-64.0882349999999974
0
LINE
8
BLACK
6
CONTINUOUS
10
100.17448499999999
20
-64.0882349999999974
11
100.3239379999999983
21
-64.0258529999999979
0
LINE
8
BLACK
6
CONTINUOUS
10
100.3239379999999983
20
-64.0258529999999979
11
100.4813509999999894
21
-63.9877899999999968
0
LINE
8
BLACK
6
CONTINUOUS
10
100.4813509999999894
20
-63.9877899999999968
11
100.642793999999995
21
-63.9749949999999998
0
LINE
8
BLACK
6
CONTINUOUS
10
100.642793999999995
20
-63.9749949999999998
11
100.642793999999995
21
-63.9749999999999943
0
LINE
8
BLACK
6
CONTINUOUS
10
100.642793999999995
20
-63.9749999999999943
11
100.6439969999999988
21
-63.9753899999999973
0
LINE
8
BLACK
6
CONTINUOUS
10
100.6439969999999988
20
-63.9753899999999973
11
100.6459619999999973
21
-63.9749999999999943
0
LINE
8
BLACK
6
CONTINUOUS
10
100.6459619999999973
20
-63.9749999999999943
11
101.8999999999999915
21
-63.9749999999999943
0
LINE
8
BLACK
6
CONTINUOUS
10
101.8999999999999915
20
-63.9749999999999943
11
102.0837749999999886
21
-63.9749999999999943
0
LINE
8
BLACK
6
CONTINUOUS
10
102.0837749999999886
20
-63.9749999999999943
11
102.4497579999999886
21
-63.941086999999996
0
LINE
8
BLACK
6
CONTINUOUS
10
102.4497579999999886
20
-63.941086999999996
11
102.811050999999992
21
-63.873548999999997
0
LINE
8
BLACK
6
CONTINUOUS
10
102.811050999999992
20
-63.873548999999997
11
103.1645699999999977
21
-63.7729639999999947
0
LINE
8
BLACK
6
CONTINUOUS
10
103.1645699999999977
20
-63.7729639999999947
11
103.5073009999999982
21
-63.6401899999999969
0
LINE
8
BLACK
6
CONTINUOUS
10
103.5073009999999982
20
-63.6401899999999969
11
103.8363189999999889
21
-63.4763579999999976
0
LINE
8
BLACK
6
CONTINUOUS
10
103.8363189999999889
20
-63.4763579999999976
11
104.148816999999994
21
-63.2828680000000006
0
LINE
8
BLACK
6
CONTINUOUS
10
104.148816999999994
20
-63.2828680000000006
11
104.4421289999999942
21
-63.0613689999999991
0
LINE
8
BLACK
6
CONTINUOUS
10
104.4421289999999942
20
-63.0613689999999991
11
104.7137519999999995
21
-62.8137519999999938
0
LINE
8
BLACK
6
CONTINUOUS
10
104.7137519999999995
20
-62.8137519999999938
11
104.9613689999999906
21
-62.5421289999999956
0
LINE
8
BLACK
6
CONTINUOUS
10
104.9613689999999906
20
-62.5421289999999956
11
105.1828679999999991
21
-62.2488169999999954
0
LINE
8
BLACK
6
CONTINUOUS
10
105.1828679999999991
20
-62.2488169999999954
11
105.3763579999999962
21
-61.9363189999999975
0
LINE
8
BLACK
6
CONTINUOUS
10
105.3763579999999962
20
-61.9363189999999975
11
105.5401899999999955
21
-61.6073009999999996
0
LINE
8
BLACK
6
CONTINUOUS
10
105.5401899999999955
20
-61.6073009999999996
11
105.6729639999999932
21
-61.2645699999999991
0
LINE
8
BLACK
6
CONTINUOUS
10
105.6729639999999932
20
-61.2645699999999991
11
105.7735489999999885
21
-60.9110510000000005
0
LINE
8
BLACK
6
CONTINUOUS
10
105.7735489999999885
20
-60.9110510000000005
11
105.8410870000000017
21
-60.5497579999999971
0
LINE
8
BLACK
6
CONTINUOUS
10
105.8410870000000017
20
-60.5497579999999971
11
105.875
21
-60.1837749999999971
0
LINE
8
BLACK
6
CONTINUOUS
10
105.875
20
-60.1837749999999971
11
105.875
21
-60.
0
LINE
8
BLACK
6
CONTINUOUS
10
105.875
20
-60.
11
105.875
21
-5.6499999999999995
0
LINE
8
BLACK
6
CONTINUOUS
10
105.875
20
-5.6499999999999995
11
105.8749989999999883
21
9.2999999999999989
0
LINE
8
BLACK
6
CONTINUOUS
10
105.8749989999999883
20
9.2999999999999989
11
105.8743629999999882
21
9.456391
0
LINE
8
BLACK
6
CONTINUOUS
10
105.8743629999999882
20
9.456391
11
105.8442509999999999
21
9.7679299999999998
0
LINE
8
BLACK
6
CONTINUOUS
10
105.8442509999999999
20
9.7679299999999998
11
105.7855829999999884
21
10.0753740000000001
0
LINE
8
BLACK
6
CONTINUOUS
10
105.7855829999999884
20
10.0753740000000001
11
105.6988580000000013
21
10.3761109999999999
0
LINE
8
BLACK
6
CONTINUOUS
10
105.6988580000000013
20
10.3761109999999999
11
105.584811000000002
21
10.667584999999999
0
LINE
8
BLACK
6
CONTINUOUS
10
105.584811000000002
20
10.667584999999999
11
105.4444129999999973
21
10.9473209999999987
0
LINE
8
BLACK
6
CONTINUOUS
10
105.4444129999999973
20
10.9473209999999987
11
105.2788559999999904
21
11.212942
0
LINE
8
BLACK
6
CONTINUOUS
10
105.2788559999999904
20
11.212942
11
105.0895459999999986
21
11.4621909999999989
0
LINE
8
BLACK
6
CONTINUOUS
10
105.0895459999999986
20
11.4621909999999989
11
104.8780909999999977
21
11.692952
0
LINE
8
BLACK
6
CONTINUOUS
10
104.8780909999999977
20
11.692952
11
104.7629439999999903
21
11.7974040000000002
0
LINE
8
BLACK
6
CONTINUOUS
10
104.7629439999999903
20
11.7974040000000002
11
104.5871739999999903
21
11.9323569999999997
0
LINE
8
BLACK
6
CONTINUOUS
10
104.5871739999999903
20
11.9323569999999997
11
104.4239979999999974
21
12.0357329999999987
0
LINE
8
BLACK
6
CONTINUOUS
10
104.4239979999999974
20
12.0357329999999987
11
104.23210499999999
21
12.1428919999999998
0
LINE
8
BLACK
6
CONTINUOUS
10
104.23210499999999
20
12.1428919999999998
11
103.978786999999997
21
12.2695819999999998
0
LINE
8
BLACK
6
CONTINUOUS
10
103.978786999999997
20
12.2695819999999998
11
103.6903700000000015
21
12.4004389999999987
0
LINE
8
BLACK
6
CONTINUOUS
10
103.6903700000000015
20
12.4004389999999987
11
103.3241769999999917
21
12.5527649999999991
0
LINE
8
BLACK
6
CONTINUOUS
10
103.3241769999999917
20
12.5527649999999991
11
102.9161659999999898
21
12.7097489999999986
0
LINE
8
BLACK
6
CONTINUOUS
10
102.9161659999999898
20
12.7097489999999986
11
102.4143299999999925
21
12.8896759999999997
0
LINE
8
BLACK
6
CONTINUOUS
10
102.4143299999999925
20
12.8896759999999997
11
101.8644740000000013
21
13.0745449999999988
0
LINE
8
BLACK
6
CONTINUOUS
10
101.8644740000000013
20
13.0745449999999988
11
101.2068259999999924
21
13.2830129999999986
0
LINE
8
BLACK
6
CONTINUOUS
10
101.2068259999999924
20
13.2830129999999986
11
100.4963269999999937
21
13.4963269999999991
0
LINE
8
BLACK
6
CONTINUOUS
10
100.4963269999999937
20
13.4963269999999991
11
99.6685039999999987
21
13.7326639999999998
0
LINE
8
BLACK
6
CONTINUOUS
10
99.6685039999999987
20
13.7326639999999998
11
98.7853829999999959
21
13.9732019999999988
0
LINE
8
BLACK
6
CONTINUOUS
10
98.7853829999999959
20
13.9732019999999988
11
97.7828429999999997
21
14.2344729999999995
0
LINE
8
BLACK
6
CONTINUOUS
10
97.7828429999999997
20
14.2344729999999995
11
96.7252379999999903
21
14.4988039999999998
0
LINE
8
BLACK
6
CONTINUOUS
10
96.7252379999999903
20
14.4988039999999998
11
95.5562999999999931
21
14.7795629999999996
0
LINE
8
BLACK
6
CONTINUOUS
10
95.5562999999999931
20
14.7795629999999996
11
94.3360229999999973
21
15.0616469999999989
0
LINE
8
BLACK
6
CONTINUOUS
10
94.3360229999999973
20
15.0616469999999989
11
93.0235709999999898
21
15.3540279999999996
0
LINE
8
BLACK
6
CONTINUOUS
10
93.0235709999999898
20
15.3540279999999996
11
91.6669529999999924
21
15.6455209999999987
0
LINE
8
BLACK
6
CONTINUOUS
10
91.6669529999999924
20
15.6455209999999987
11
90.2467959999999891
21
15.9400259999999996
0
LINE
8
BLACK
6
CONTINUOUS
10
90.2467959999999891
20
15.9400259999999996
11
88.7923019999999923
21
16.2311869999999985
0
LINE
8
BLACK
6
CONTINUOUS
10
88.7923019999999923
20
16.2311869999999985
11
87.308329999999998
21
16.5179469999999995
0
LINE
8
BLACK
6
CONTINUOUS
10
87.308329999999998
20
16.5179469999999995
11
87.3083290000000005
21
16.5179480000000005
0
LINE
8
BLACK
6
CONTINUOUS
10
87.3083290000000005
20
16.5179480000000005
11
85.8021829999999994
21
16.7987719999999996
0
LINE
8
BLACK
6
CONTINUOUS
10
85.8021829999999994
20
16.7987719999999996
11
82.7891750000000002
21
17.3304690000000008
0
LINE
8
BLACK
6
CONTINUOUS
10
82.7891750000000002
20
17.3304690000000008
11
79.8385430000000014
21
17.8121039999999979
0
LINE
8
BLACK
6
CONTINUOUS
10
79.8385430000000014
20
17.8121039999999979
11
77.0188359999999932
21
18.2342860000000009
0
LINE
8
BLACK
6
CONTINUOUS
10
77.0188359999999932
20
18.2342860000000009
11
74.3806390000000022
21
18.5920029999999983
0
LINE
8
BLACK
6
CONTINUOUS
10
74.3806390000000022
20
18.5920029999999983
11
71.9564469999999972
21
18.8840649999999997
0
LINE
8
BLACK
6
CONTINUOUS
10
71.9564469999999972
20
18.8840649999999997
11
69.7638630000000006
21
19.1121259999999999
0
LINE
8
BLACK
6
CONTINUOUS
10
69.7638630000000006
20
19.1121259999999999
11
67.8083369999999945
21
19.2798909999999992
0
LINE
8
BLACK
6
CONTINUOUS
10
67.8083369999999945
20
19.2798909999999992
11
66.0863760000000013
21
19.3923839999999998
0
LINE
8
BLACK
6
CONTINUOUS
10
66.0863760000000013
20
19.3923839999999998
11
64.5882330000000024
21
19.4553779999999996
0
LINE
8
BLACK
6
CONTINUOUS
10
64.5882330000000024
20
19.4553779999999996
11
63.2998159999999999
21
19.4749999999999979
0
LINE
8
BLACK
6
CONTINUOUS
10
63.2998159999999999
20
19.4749999999999979
11
53.1000669999999957
21
19.4749999999999979
0
CIRCLE
8
BLACK
10
21.5999999999999979
20
25.1999999999999993
40
1.3499999999999999
0
CIRCLE
8
BLACK
10
51.2999999999999972
20
-81.0999999999999943
40
3.25
0
CIRCLE
8
BLACK
10
0.5
20
12.1999999999999993
40
3.25
0
CIRCLE
8
BLACK
10
89.2999999999999972
20
14.6999999999999993
40
3.25
0
CIRCLE
8
BLACK
10
32.1499999999999986
20
-82.5
40
1.3499999999999999
0
CIRCLE
8
BLACK
10
32.6000000000000014
20
4.7629999999999999
40
0.8509
0
CIRCLE
8
BLACK
10
33.019999999999996
20
4.7629999999999999
40
0.85
0
CIRCLE
8
BLACK
10
34.2899999999999991
20
7.3029999999999999
40
1.5
0
CIRCLE
8
BLACK
10
35.5599999999999952
20
9.843
40
1.5
0
CIRCLE
8
BLACK
10
38.1000000000000014
20
4.7629999999999999
40
2.5
0
CIRCLE
8
BLACK
10
38.1000000000000014
20
4.7629999999999999
40
2.5
0
CIRCLE
8
BLACK
10
38.1000000000000014
20
-1.137
40
1.5
0
CIRCLE
8
BLACK
10
38.1000000000000014
20
-1.137
40
1.5
0
CIRCLE
8
BLACK
10
40.6400000000000006
20
9.843
40
1.5
0
CIRCLE
8
BLACK
10
41.9099999999999966
20
7.3029999999999999
40
1.5
0
CIRCLE
8
BLACK
10
43.1799999999999997
20
4.7629999999999999
40
0.85
0
CIRCLE
8
BLACK
10
43.6000000000000014
20
4.7629999999999999
40
0.8509
0
CIRCLE
8
BLACK
10
43.1000000000000014
20
9.9130000000000003
40
0.5
0
CIRCLE
8
BLACK
10
43.1000000000000014
20
0.963
40
1.5
0
CIRCLE
8
BLACK
10
33.1000000000000014
20
9.9130000000000003
40
0.5
0
CIRCLE
8
BLACK
10
33.1000000000000014
20
0.963
40
1.5
0
CIRCLE
8
BLACK
10
51.6499999999999986
20
-11.8099999999999987
40
0.8509
0
CIRCLE
8
BLACK
10
52.0700000000000003
20
-11.8099999999999987
40
0.85
0
CIRCLE
8
BLACK
10
53.3399999999999963
20
-9.2699999999999996
40
1.5
0
CIRCLE
8
BLACK
10
54.6099999999999994
20
-6.7299999999999995
40
1.5
0
CIRCLE
8
BLACK
10
57.1499999999999986
20
-11.8099999999999987
40
2.5
0
CIRCLE
8
BLACK
10
57.1499999999999986
20
-11.8099999999999987
40
2.5
0
CIRCLE
8
BLACK
10
57.1499999999999986
20
-17.7100000000000009
40
1.5
0
CIRCLE
8
BLACK
10
57.1499999999999986
20
-17.7100000000000009
40
1.5
0
CIRCLE
8
BLACK
10
59.6899999999999977
20
-6.7299999999999995
40
1.5
0
CIRCLE
8
BLACK
10
60.9599999999999937
20
-9.2699999999999996
40
1.5
0
CIRCLE
8
BLACK
10
62.2299999999999969
20
-11.8099999999999987
40
0.85
0
CIRCLE
8
BLACK
10
62.6499999999999986
20
-11.8099999999999987
40
0.8509
0
CIRCLE
8
BLACK
10
62.1499999999999986
20
-6.6600000000000001
40
0.5
0
CIRCLE
8
BLACK
10
62.1499999999999986
20
-15.6099999999999994
40
1.5
0
CIRCLE
8
BLACK
10
52.1499999999999986
20
-6.6600000000000001
40
0.5
0
CIRCLE
8
BLACK
10
52.1499999999999986
20
-15.6099999999999994
40
1.5
0
CIRCLE
8
BLACK
10
-5.5
20
-38.1000000000000014
40
0.8509
0
CIRCLE
8
BLACK
10
-5.0800000000000001
20
-38.1000000000000014
40
0.85
0
CIRCLE
8
BLACK
10
-3.8099999999999996
20
-35.5599999999999952
40
1.5
0
CIRCLE
8
BLACK
10
-2.54
20
-33.019999999999996
40
1.5
0
CIRCLE
8
BLACK
10
0.
20
-38.1000000000000014
40
2.5
0
CIRCLE
8
BLACK
10
0.
20
-38.1000000000000014
40
2.5
0
CIRCLE
8
BLACK
10
0.
20
-44.
40
1.5
0
CIRCLE
8
BLACK
10
0.
20
-44.
40
1.5
0
CIRCLE
8
BLACK
10
2.54
20
-33.019999999999996
40
1.5
0
CIRCLE
8
BLACK
10
3.8099999999999996
20
-35.5599999999999952
40
1.5
0
CIRCLE
8
BLACK
10
5.0800000000000001
20
-38.1000000000000014
40
0.85
0
CIRCLE
8
BLACK
10
5.5
20
-38.1000000000000014
40
0.8509
0
CIRCLE
8
BLACK
10
5.
20
-32.9499999999999957
40
0.5
0
CIRCLE
8
BLACK
10
5.
20
-41.8999999999999986
40
1.5
0
CIRCLE
8
BLACK
10
-5.
20
-32.9499999999999957
40
0.5
0
CIRCLE
8
BLACK
10
-5.
20
-41.8999999999999986
40
1.5
0
CIRCLE
8
BLACK
10
51.6499999999999986
20
7.2399999999999993
40
0.8509
0
CIRCLE
8
BLACK
10
52.0700000000000003
20
7.2399999999999993
40
0.85
0
CIRCLE
8
BLACK
10
53.3399999999999963
20
9.7799999999999994
40
1.5
0
CIRCLE
8
BLACK
10
54.6099999999999994
20
12.3200000000000003
40
1.5
0
CIRCLE
8
BLACK
10
57.1499999999999986
20
7.2399999999999993
40
2.5
0
CIRCLE
8
BLACK
10
57.1499999999999986
20
7.2399999999999993
40
2.5
0
CIRCLE
8
BLACK
10
57.1499999999999986
20
1.3399999999999999
40
1.5
0
CIRCLE
8
BLACK
10
57.1499999999999986
20
1.3399999999999999
40
1.5
0
CIRCLE
8
BLACK
10
59.6899999999999977
20
12.3200000000000003
40
1.5
0
CIRCLE
8
BLACK
10
60.9599999999999937
20
9.7799999999999994
40
1.5
0
CIRCLE
8
BLACK
10
62.2299999999999969
20
7.2399999999999993
40
0.85
0
CIRCLE
8
BLACK
10
62.6499999999999986
20
7.2399999999999993
40
0.8509
0
CIRCLE
8
BLACK
10
62.1499999999999986
20
12.3899999999999988
40
0.5
0
CIRCLE
8
BLACK
10
62.1499999999999986
20
3.4399999999999999
40
1.5
0
CIRCLE
8
BLACK
10
52.1499999999999986
20
12.3899999999999988
40
0.5
0
CIRCLE
8
BLACK
10
52.1499999999999986
20
3.4399999999999999
40
1.5
0
CIRCLE
8
BLACK
10
13.5499999999999989
20
-38.1000000000000014
40
0.8509
0
CIRCLE
8
BLACK
10
13.9699999999999989
20
-38.1000000000000014
40
0.85
0
CIRCLE
8
BLACK
10
15.2399999999999984
20
-35.5599999999999952
40
1.5
0
CIRCLE
8
BLACK
10
16.509999999999998
20
-33.019999999999996
40
1.5
0
CIRCLE
8
BLACK
10
19.0500000000000007
20
-38.1000000000000014
40
2.5
0
CIRCLE
8
BLACK
10
19.0500000000000007
20
-38.1000000000000014
40
2.5
0
CIRCLE
8
BLACK
10
19.0500000000000007
20
-44.
40
1.5
0
CIRCLE
8
BLACK
10
19.0500000000000007
20
-44.
40
1.5
0
CIRCLE
8
BLACK
10
21.5899999999999999
20
-33.019999999999996
40
1.5
0
CIRCLE
8
BLACK
10
22.8599999999999994
20
-35.5599999999999952
40
1.5
0
CIRCLE
8
BLACK
10
24.129999999999999
20
-38.1000000000000014
40
0.85
0
CIRCLE
8
BLACK
10
24.5499999999999972
20
-38.1000000000000014
40
0.8509
0
CIRCLE
8
BLACK
10
24.0499999999999972
20
-32.9499999999999957
40
0.5
0
CIRCLE
8
BLACK
10
24.0499999999999972
20
-41.8999999999999986
40
1.5
0
CIRCLE
8
BLACK
10
14.0499999999999989
20
-32.9499999999999957
40
0.5
0
CIRCLE
8
BLACK
10
14.0499999999999989
20
-41.8999999999999986
40
1.5
0
CIRCLE
8
BLACK
10
46.1340000000000003
20
15.4699999999999989
40
1.3499999999999999
0
CIRCLE
8
BLACK
10
51.6499999999999986
20
-30.8599999999999994
40
0.8509
0
CIRCLE
8
BLACK
10
52.0700000000000003
20
-30.8599999999999994
40
0.85
0
CIRCLE
8
BLACK
10
53.3399999999999963
20
-28.3200000000000003
40
1.5
0
CIRCLE
8
BLACK
10
54.6099999999999994
20
-25.7799999999999976
40
1.5
0
CIRCLE
8
BLACK
10
57.1499999999999986
20
-30.8599999999999994
40
2.5
0
CIRCLE
8
BLACK
10
57.1499999999999986
20
-30.8599999999999994
40
2.5
0
CIRCLE
8
BLACK
10
57.1499999999999986
20
-36.759999999999998
40
1.5
0
CIRCLE
8
BLACK
10
57.1499999999999986
20
-36.759999999999998
40
1.5
0
CIRCLE
8
BLACK
10
59.6899999999999977
20
-25.7799999999999976
40
1.5
0
CIRCLE
8
BLACK
10
60.9599999999999937
20
-28.3200000000000003
40
1.5
0
CIRCLE
8
BLACK
10
62.2299999999999969
20
-30.8599999999999994
40
0.85
0
CIRCLE
8
BLACK
10
62.6499999999999986
20
-30.8599999999999994
40
0.8509
0
CIRCLE
8
BLACK
10
62.1499999999999986
20
-25.7099999999999973
40
0.5
0
CIRCLE
8
BLACK
10
62.1499999999999986
20
-34.6599999999999966
40
1.5
0
CIRCLE
8
BLACK
10
52.1499999999999986
20
-25.7099999999999973
40
0.5
0
CIRCLE
8
BLACK
10
52.1499999999999986
20
-34.6599999999999966
40
1.5
0
CIRCLE
8
BLACK
10
32.6000000000000014
20
-33.3369999999999962
40
0.8509
0
CIRCLE
8
BLACK
10
33.019999999999996
20
-33.3369999999999962
40
0.85
0
CIRCLE
8
BLACK
10
34.2899999999999991
20
-30.796999999999997
40
1.5
0
CIRCLE
8
BLACK
10
35.5599999999999952
20
-28.2569999999999979
40
1.5
0
CIRCLE
8
BLACK
10
38.1000000000000014
20
-33.3369999999999962
40
2.5
0
CIRCLE
8
BLACK
10
38.1000000000000014
20
-33.3369999999999962
40
2.5
0
CIRCLE
8
BLACK
10
38.1000000000000014
20
-39.2369999999999948
40
1.5
0
CIRCLE
8
BLACK
10
38.1000000000000014
20
-39.2369999999999948
40
1.5
0
CIRCLE
8
BLACK
10
40.6400000000000006
20
-28.2569999999999979
40
1.5
0
CIRCLE
8
BLACK
10
41.9099999999999966
20
-30.796999999999997
40
1.5
0
CIRCLE
8
BLACK
10
43.1799999999999997
20
-33.3369999999999962
40
0.85
0
CIRCLE
8
BLACK
10
43.6000000000000014
20
-33.3369999999999962
40
0.8509
0
CIRCLE
8
BLACK
10
43.1000000000000014
20
-28.1869999999999976
40
0.5
0
CIRCLE
8
BLACK
10
43.1000000000000014
20
-37.1370000000000005
40
1.5
0
CIRCLE
8
BLACK
10
33.1000000000000014
20
-28.1869999999999976
40
0.5
0
CIRCLE
8
BLACK
10
33.1000000000000014
20
-37.1370000000000005
40
1.5
0
CIRCLE
8
BLACK
10
-5.5
20
-76.2000000000000028
40
0.8509
0
CIRCLE
8
BLACK
10
-5.0800000000000001
20
-76.2000000000000028
40
0.85
0
CIRCLE
8
BLACK
10
-3.8099999999999996
20
-73.6599999999999966
40
1.5
0
CIRCLE
8
BLACK
10
-2.54
20
-71.1199999999999903
40
1.5
0
CIRCLE
8
BLACK
10
0.
20
-76.2000000000000028
40
2.5
0
CIRCLE
8
BLACK
10
0.
20
-76.2000000000000028
40
2.5
0
CIRCLE
8
BLACK
10
0.
20
-82.0999999999999943
40
1.5
0
CIRCLE
8
BLACK
10
0.
20
-82.0999999999999943
40
1.5
0
CIRCLE
8
BLACK
10
2.54
20
-71.1199999999999903
40
1.5
0
CIRCLE
8
BLACK
10
3.8099999999999996
20
-73.6599999999999966
40
1.5
0
CIRCLE
8
BLACK
10
5.0800000000000001
20
-76.2000000000000028
40
0.85
0
CIRCLE
8
BLACK
10
5.5
20
-76.2000000000000028
40
0.8509
0
CIRCLE
8
BLACK
10
5.
20
-71.0499999999999972
40
0.5
0
CIRCLE
8
BLACK
10
5.
20
-80.
40
1.5
0
CIRCLE
8
BLACK
10
-5.
20
-71.0499999999999972
40
0.5
0
CIRCLE
8
BLACK
10
-5.
20
-80.
40
1.5
0
CIRCLE
8
BLACK
10
89.75
20
-16.5730000000000004
40
0.8509
0
CIRCLE
8
BLACK
10
90.1700000000000017
20
-16.5730000000000004
40
0.85
0
CIRCLE
8
BLACK
10
91.4399999999999977
20
-14.0329999999999995
40
1.5
0
CIRCLE
8
BLACK
10
92.7099999999999937
20
-11.4930000000000003
40
1.5
0
CIRCLE
8
BLACK
10
95.25
20
-16.5730000000000004
40
2.5
0
CIRCLE
8
BLACK
10
95.25
20
-16.5730000000000004
40
2.5
0
CIRCLE
8
BLACK
10
95.25
20
-22.472999999999999
40
1.5
0
CIRCLE
8
BLACK
10
95.25
20
-22.472999999999999
40
1.5
0
CIRCLE
8
BLACK
10
97.789999999999992
20
-11.4930000000000003
40
1.5
0
CIRCLE
8
BLACK
10
99.0600000000000023
20
-14.0329999999999995
40
1.5
0
CIRCLE
8
BLACK
10
100.3299999999999983
20
-16.5730000000000004
40
0.85
0
CIRCLE
8
BLACK
10
100.75
20
-16.5730000000000004
40
0.8509
0
CIRCLE
8
BLACK
10
100.25
20
-11.423
40
0.5
0
CIRCLE
8
BLACK
10
100.25
20
-20.3729999999999976
40
1.5
0
CIRCLE
8
BLACK
10
90.25
20
-11.423
40
0.5
0
CIRCLE
8
BLACK
10
90.25
20
-20.3729999999999976
40
1.5
0
CIRCLE
8
BLACK
10
70.7000000000000028
20
-52.3870000000000005
40
0.8509
0
CIRCLE
8
BLACK
10
71.1199999999999903
20
-52.3870000000000005
40
0.85
0
CIRCLE
8
BLACK
10
72.3900000000000006
20
-49.8469999999999942
40
1.5
0
CIRCLE
8
BLACK
10
73.6599999999999966
20
-47.3069999999999951
40
1.5
0
CIRCLE
8
BLACK
10
76.2000000000000028
20
-52.3870000000000005
40
2.5
0
CIRCLE
8
BLACK
10
76.2000000000000028
20
-52.3870000000000005
40
2.5
0
CIRCLE
8
BLACK
10
76.2000000000000028
20
-58.286999999999999
40
1.5
0
CIRCLE
8
BLACK
10
76.2000000000000028
20
-58.286999999999999
40
1.5
0
CIRCLE
8
BLACK
10
78.7399999999999949
20
-47.3069999999999951
40
1.5
0
CIRCLE
8
BLACK
10
80.0099999999999909
20
-49.8469999999999942
40
1.5
0
CIRCLE
8
BLACK
10
81.2800000000000011
20
-52.3870000000000005
40
0.85
0
CIRCLE
8
BLACK
10
81.7000000000000028
20
-52.3870000000000005
40
0.8509
0
CIRCLE
8
BLACK
10
81.2000000000000028
20
-47.2369999999999948
40
0.5
0
CIRCLE
8
BLACK
10
81.2000000000000028
20
-56.1869999999999976
40
1.5
0
CIRCLE
8
BLACK
10
71.2000000000000028
20
-47.2369999999999948
40
0.5
0
CIRCLE
8
BLACK
10
71.2000000000000028
20
-56.1869999999999976
40
1.5
0
CIRCLE
8
BLACK
10
70.7000000000000028
20
-14.286999999999999
40
0.8509
0
CIRCLE
8
BLACK
10
71.1199999999999903
20
-14.286999999999999
40
0.85
0
CIRCLE
8
BLACK
10
72.3900000000000006
20
-11.7469999999999999
40
1.5
0
CIRCLE
8
BLACK
10
73.6599999999999966
20
-9.206999999999999
40
1.5
0
CIRCLE
8
BLACK
10
76.2000000000000028
20
-14.286999999999999
40
2.5
0
CIRCLE
8
BLACK
10
76.2000000000000028
20
-14.286999999999999
40
2.5
0
CIRCLE
8
BLACK
10
76.2000000000000028
20
-20.1869999999999976
40
1.5
0
CIRCLE
8
BLACK
10
76.2000000000000028
20
-20.1869999999999976
40
1.5
0
CIRCLE
8
BLACK
10
78.7399999999999949
20
-9.206999999999999
40
1.5
0
CIRCLE
8
BLACK
10
80.0099999999999909
20
-11.7469999999999999
40
1.5
0
CIRCLE
8
BLACK
10
81.2800000000000011
20
-14.286999999999999
40
0.85
0
CIRCLE
8
BLACK
10
81.7000000000000028
20
-14.286999999999999
40
0.8509
0
CIRCLE
8
BLACK
10
81.2000000000000028
20
-9.1370000000000005
40
0.5
0
CIRCLE
8
BLACK
10
81.2000000000000028
20
-18.0869999999999997
40
1.5
0
CIRCLE
8
BLACK
10
71.2000000000000028
20
-9.1370000000000005
40
0.5
0
CIRCLE
8
BLACK
10
71.2000000000000028
20
-18.0869999999999997
40
1.5
0
CIRCLE
8
BLACK
10
51.6499999999999986
20
-49.9099999999999966
40
0.8509
0
CIRCLE
8
BLACK
10
52.0700000000000003
20
-49.9099999999999966
40
0.85
0
CIRCLE
8
BLACK
10
53.3399999999999963
20
-47.3699999999999974
40
1.5
0
CIRCLE
8
BLACK
10
54.6099999999999994
20
-44.8299999999999983
40
1.5
0
CIRCLE
8
BLACK
10
57.1499999999999986
20
-49.9099999999999966
40
2.5
0
CIRCLE
8
BLACK
10
57.1499999999999986
20
-49.9099999999999966
40
2.5
0
CIRCLE
8
BLACK
10
57.1499999999999986
20
-55.8099999999999952
40
1.5
0
CIRCLE
8
BLACK
10
57.1499999999999986
20
-55.8099999999999952
40
1.5
0
CIRCLE
8
BLACK
10
59.6899999999999977
20
-44.8299999999999983
40
1.5
0
CIRCLE
8
BLACK
10
60.9599999999999937
20
-47.3699999999999974
40
1.5
0
CIRCLE
8
BLACK
10
62.2299999999999969
20
-49.9099999999999966
40
0.85
0
CIRCLE
8
BLACK
10
62.6499999999999986
20
-49.9099999999999966
40
0.8509
0
CIRCLE
8
BLACK
10
62.1499999999999986
20
-44.759999999999998
40
0.5
0
CIRCLE
8
BLACK
10
62.1499999999999986
20
-53.7100000000000009
40
1.5
0
CIRCLE
8
BLACK
10
52.1499999999999986
20
-44.759999999999998
40
0.5
0
CIRCLE
8
BLACK
10
52.1499999999999986
20
-53.7100000000000009
40
1.5
0
CIRCLE
8
BLACK
10
-5.5
20
-19.0500000000000007
40
0.8509
0
CIRCLE
8
BLACK
10
-5.0800000000000001
20
-19.0500000000000007
40
0.85
0
CIRCLE
8
BLACK
10
-3.8099999999999996
20
-16.509999999999998
40
1.5
0
CIRCLE
8
BLACK
10
-2.54
20
-13.9699999999999989
40
1.5
0
CIRCLE
8
BLACK
10
0.
20
-19.0500000000000007
40
2.5
0
CIRCLE
8
BLACK
10
0.
20
-19.0500000000000007
40
2.5
0
CIRCLE
8
BLACK
10
0.
20
-24.9499999999999993
40
1.5
0
CIRCLE
8
BLACK
10
0.
20
-24.9499999999999993
40
1.5
0
CIRCLE
8
BLACK
10
2.54
20
-13.9699999999999989
40
1.5
0
CIRCLE
8
BLACK
10
3.8099999999999996
20
-16.509999999999998
40
1.5
0
CIRCLE
8
BLACK
10
5.0800000000000001
20
-19.0500000000000007
40
0.85
0
CIRCLE
8
BLACK
10
5.5
20
-19.0500000000000007
40
0.8509
0
CIRCLE
8
BLACK
10
5.
20
-13.8999999999999986
40
0.5
0
CIRCLE
8
BLACK
10
5.
20
-22.8499999999999979
40
1.5
0
CIRCLE
8
BLACK
10
-5.
20
-13.8999999999999986
40
0.5
0
CIRCLE
8
BLACK
10
-5.
20
-22.8499999999999979
40
1.5
0
CIRCLE
8
BLACK
10
13.5499999999999989
20
0.
40
0.8509
0
CIRCLE
8
BLACK
10
13.9699999999999989
20
0.
40
0.85
0
CIRCLE
8
BLACK
10
15.2399999999999984
20
2.54
40
1.5
0
CIRCLE
8
BLACK
10
16.509999999999998
20
5.0800000000000001
40
1.5
0
CIRCLE
8
BLACK
10
19.0500000000000007
20
0.
40
2.5
0
CIRCLE
8
BLACK
10
19.0500000000000007
20
0.
40
2.5
0
CIRCLE
8
BLACK
10
19.0500000000000007
20
-5.8999999999999995
40
1.5
0
CIRCLE
8
BLACK
10
19.0500000000000007
20
-5.8999999999999995
40
1.5
0
CIRCLE
8
BLACK
10
21.5899999999999999
20
5.0800000000000001
40
1.5
0
CIRCLE
8
BLACK
10
22.8599999999999994
20
2.54
40
1.5
0
CIRCLE
8
BLACK
10
24.129999999999999
20
0.
40
0.85
0
CIRCLE
8
BLACK
10
24.5499999999999972
20
0.
40
0.8509
0
CIRCLE
8
BLACK
10
24.0499999999999972
20
5.1499999999999995
40
0.5
0
CIRCLE
8
BLACK
10
24.0499999999999972
20
-3.7999999999999998
40
1.5
0
CIRCLE
8
BLACK
10
14.0499999999999989
20
5.1499999999999995
40
0.5
0
CIRCLE
8
BLACK
10
14.0499999999999989
20
-3.7999999999999998
40
1.5
0
CIRCLE
8
BLACK
10
70.7000000000000028
20
-71.4369999999999976
40
0.8509
0
CIRCLE
8
BLACK
10
71.1199999999999903
20
-71.4369999999999976
40
0.85
0
CIRCLE
8
BLACK
10
72.3900000000000006
20
-68.8969999999999914
40
1.5
0
CIRCLE
8
BLACK
10
73.6599999999999966
20
-66.3569999999999993
40
1.5
0
CIRCLE
8
BLACK
10
76.2000000000000028
20
-71.4369999999999976
40
2.5
0
CIRCLE
8
BLACK
10
76.2000000000000028
20
-71.4369999999999976
40
2.5
0
CIRCLE
8
BLACK
10
76.2000000000000028
20
-77.3370000000000033
40
1.5
0
CIRCLE
8
BLACK
10
76.2000000000000028
20
-77.3370000000000033
40
1.5
0
CIRCLE
8
BLACK
10
78.7399999999999949
20
-66.3569999999999993
40
1.5
0
CIRCLE
8
BLACK
10
80.0099999999999909
20
-68.8969999999999914
40
1.5
0
CIRCLE
8
BLACK
10
81.2800000000000011
20
-71.4369999999999976
40
0.85
0
CIRCLE
8
BLACK
10
81.7000000000000028
20
-71.4369999999999976
40
0.8509
0
CIRCLE
8
BLACK
10
81.2000000000000028
20
-66.2869999999999919
40
0.5
0
CIRCLE
8
BLACK
10
81.2000000000000028
20
-75.2369999999999948
40
1.5
0
CIRCLE
8
BLACK
10
71.2000000000000028
20
-66.2869999999999919
40
0.5
0
CIRCLE
8
BLACK
10
71.2000000000000028
20
-75.2369999999999948
40
1.5
0
CIRCLE
8
BLACK
10
13.5499999999999989
20
-57.1499999999999986
40
0.8509
0
CIRCLE
8
BLACK
10
13.9699999999999989
20
-57.1499999999999986
40
0.85
0
CIRCLE
8
BLACK
10
15.2399999999999984
20
-54.6099999999999994
40
1.5
0
CIRCLE
8
BLACK
10
16.509999999999998
20
-52.0700000000000003
40
1.5
0
CIRCLE
8
BLACK
10
19.0500000000000007
20
-57.1499999999999986
40
2.5
0
CIRCLE
8
BLACK
10
19.0500000000000007
20
-57.1499999999999986
40
2.5
0
CIRCLE
8
BLACK
10
19.0500000000000007
20
-63.0499999999999972
40
1.5
0
CIRCLE
8
BLACK
10
19.0500000000000007
20
-63.0499999999999972
40
1.5
0
CIRCLE
8
BLACK
10
21.5899999999999999
20
-52.0700000000000003
40
1.5
0
CIRCLE
8
BLACK
10
22.8599999999999994
20
-54.6099999999999994
40
1.5
0
CIRCLE
8
BLACK
10
24.129999999999999
20
-57.1499999999999986
40
0.85
0
CIRCLE
8
BLACK
10
24.5499999999999972
20
-57.1499999999999986
40
0.8509
0
CIRCLE
8
BLACK
10
24.0499999999999972
20
-52.
40
0.5
0
CIRCLE
8
BLACK
10
24.0499999999999972
20
-60.9499999999999957
40
1.5
0
CIRCLE
8
BLACK
10
14.0499999999999989
20
-52.
40
0.5
0
CIRCLE
8
BLACK
10
14.0499999999999989
20
-60.9499999999999957
40
1.5
0
CIRCLE
8
BLACK
10
89.75
20
-35.6229999999999976
40
0.8509
0
CIRCLE
8
BLACK
10
90.1700000000000017
20
-35.6229999999999976
40
0.85
0
CIRCLE
8
BLACK
10
91.4399999999999977
20
-33.0829999999999984
40
1.5
0
CIRCLE
8
BLACK
10
92.7099999999999937
20
-30.5429999999999993
40
1.5
0
CIRCLE
8
BLACK
10
95.25
20
-35.6229999999999976
40
2.5
0
CIRCLE
8
BLACK
10
95.25
20
-35.6229999999999976
40
2.5
0
CIRCLE
8
BLACK
10
95.25
20
-41.5229999999999961
40
1.5
0
CIRCLE
8
BLACK
10
95.25
20
-41.5229999999999961
40
1.5
0
CIRCLE
8
BLACK
10
97.789999999999992
20
-30.5429999999999993
40
1.5
0
CIRCLE
8
BLACK
10
99.0600000000000023
20
-33.0829999999999984
40
1.5
0
CIRCLE
8
BLACK
10
100.3299999999999983
20
-35.6229999999999976
40
0.85
0
CIRCLE
8
BLACK
10
100.75
20
-35.6229999999999976
40
0.8509
0
CIRCLE
8
BLACK
10
100.25
20
-30.472999999999999
40
0.5
0
CIRCLE
8
BLACK
10
100.25
20
-39.4229999999999947
40
1.5
0
CIRCLE
8
BLACK
10
90.25
20
-30.472999999999999
40
0.5
0
CIRCLE
8
BLACK
10
90.25
20
-39.4229999999999947
40
1.5
0
CIRCLE
8
BLACK
10
70.7000000000000028
20
4.7629999999999999
40
0.8509
0
CIRCLE
8
BLACK
10
71.1199999999999903
20
4.7629999999999999
40
0.85
0
CIRCLE
8
BLACK
10
72.3900000000000006
20
7.3029999999999999
40
1.5
0
CIRCLE
8
BLACK
10
73.6599999999999966
20
9.843
40
1.5
0
CIRCLE
8
BLACK
10
76.2000000000000028
20
4.7629999999999999
40
2.5
0
CIRCLE
8
BLACK
10
76.2000000000000028
20
4.7629999999999999
40
2.5
0
CIRCLE
8
BLACK
10
76.2000000000000028
20
-1.137
40
1.5
0
CIRCLE
8
BLACK
10
76.2000000000000028
20
-1.137
40
1.5
0
CIRCLE
8
BLACK
10
78.7399999999999949
20
9.843
40
1.5
0
CIRCLE
8
BLACK
10
80.0099999999999909
20
7.3029999999999999
40
1.5
0
CIRCLE
8
BLACK
10
81.2800000000000011
20
4.7629999999999999
40
0.85
0
CIRCLE
8
BLACK
10
81.7000000000000028
20
4.7629999999999999
40
0.8509
0
CIRCLE
8
BLACK
10
81.2000000000000028
20
9.9130000000000003
40
0.5
0
CIRCLE
8
BLACK
10
81.2000000000000028
20
0.963
40
1.5
0
CIRCLE
8
BLACK
10
71.2000000000000028
20
9.9130000000000003
40
0.5
0
CIRCLE
8
BLACK
10
71.2000000000000028
20
0.963
40
1.5
0
CIRCLE
8
BLACK
10
13.5499999999999989
20
-19.0500000000000007
40
0.8509
0
CIRCLE
8
BLACK
10
13.9699999999999989
20
-19.0500000000000007
40
0.85
0
CIRCLE
8
BLACK
10
15.2399999999999984
20
-16.509999999999998
40
1.5
0
CIRCLE
8
BLACK
10
16.509999999999998
20
-13.9699999999999989
40
1.5
0
CIRCLE
8
BLACK
10
19.0500000000000007
20
-19.0500000000000007
40
2.5
0
CIRCLE
8
BLACK
10
19.0500000000000007
20
-19.0500000000000007
40
2.5
0
CIRCLE
8
BLACK
10
19.0500000000000007
20
-24.9499999999999993
40
1.5
0
CIRCLE
8
BLACK
10
19.0500000000000007
20
-24.9499999999999993
40
1.5
0
CIRCLE
8
BLACK
10
21.5899999999999999
20
-13.9699999999999989
40
1.5
0
CIRCLE
8
BLACK
10
22.8599999999999994
20
-16.509999999999998
40
1.5
0
CIRCLE
8
BLACK
10
24.129999999999999
20
-19.0500000000000007
40
0.85
0
CIRCLE
8
BLACK
10
24.5499999999999972
20
-19.0500000000000007
40
0.8509
0
CIRCLE
8
BLACK
10
24.0499999999999972
20
-13.8999999999999986
40
0.5
0
CIRCLE
8
BLACK
10
24.0499999999999972
20
-22.8499999999999979
40
1.5
0
CIRCLE
8
BLACK
10
14.0499999999999989
20
-13.8999999999999986
40
0.5
0
CIRCLE
8
BLACK
10
14.0499999999999989
20
-22.8499999999999979
40
1.5
0
CIRCLE
8
BLACK
10
-5.5
20
0.
40
0.8509
0
CIRCLE
8
BLACK
10
-5.0800000000000001
20
0.
40
0.85
0
CIRCLE
8
BLACK
10
-3.8099999999999996
20
2.54
40
1.5
0
CIRCLE
8
BLACK
10
-2.54
20
5.0800000000000001
40
1.5
0
CIRCLE
8
BLACK
10
0.
20
0.
40
2.5
0
CIRCLE
8
BLACK
10
0.
20
0.
40
2.5
0
CIRCLE
8
BLACK
10
0.
20
-5.8999999999999995
40
1.5
0
CIRCLE
8
BLACK
10
0.
20
-5.8999999999999995
40
1.5
0
CIRCLE
8
BLACK
10
2.54
20
5.0800000000000001
40
1.5
0
CIRCLE
8
BLACK
10
3.8099999999999996
20
2.54
40
1.5
0
CIRCLE
8
BLACK
10
5.0800000000000001
20
0.
40
0.85
0
CIRCLE
8
BLACK
10
5.5
20
0.
40
0.8509
0
CIRCLE
8
BLACK
10
5.
20
5.1499999999999995
40
0.5
0
CIRCLE
8
BLACK
10
5.
20
-3.7999999999999998
40
1.5
0
CIRCLE
8
BLACK
10
-5.
20
5.1499999999999995
40
0.5
0
CIRCLE
8
BLACK
10
-5.
20
-3.7999999999999998
40
1.5
0
CIRCLE
8
BLACK
10
88.8999999999999915
20
-78.
40
1.3499999999999999
0
CIRCLE
8
BLACK
10
70.7000000000000028
20
-33.3369999999999962
40
0.8509
0
CIRCLE
8
BLACK
10
71.1199999999999903
20
-33.3369999999999962
40
0.85
0
CIRCLE
8
BLACK
10
72.3900000000000006
20
-30.796999999999997
40
1.5
0
CIRCLE
8
BLACK
10
73.6599999999999966
20
-28.2569999999999979
40
1.5
0
CIRCLE
8
BLACK
10
76.2000000000000028
20
-33.3369999999999962
40
2.5
0
CIRCLE
8
BLACK
10
76.2000000000000028
20
-33.3369999999999962
40
2.5
0
CIRCLE
8
BLACK
10
76.2000000000000028
20
-39.2369999999999948
40
1.5
0
CIRCLE
8
BLACK
10
76.2000000000000028
20
-39.2369999999999948
40
1.5
0
CIRCLE
8
BLACK
10
78.7399999999999949
20
-28.2569999999999979
40
1.5
0
CIRCLE
8
BLACK
10
80.0099999999999909
20
-30.796999999999997
40
1.5
0
CIRCLE
8
BLACK
10
81.2800000000000011
20
-33.3369999999999962
40
0.85
0
CIRCLE
8
BLACK
10
81.7000000000000028
20
-33.3369999999999962
40
0.8509
0
CIRCLE
8
BLACK
10
81.2000000000000028
20
-28.1869999999999976
40
0.5
0
CIRCLE
8
BLACK
10
81.2000000000000028
20
-37.1370000000000005
40
1.5
0
CIRCLE
8
BLACK
10
71.2000000000000028
20
-28.1869999999999976
40
0.5
0
CIRCLE
8
BLACK
10
71.2000000000000028
20
-37.1370000000000005
40
1.5
0
CIRCLE
8
BLACK
10
51.6499999999999986
20
-68.9599999999999937
40
0.8509
0
CIRCLE
8
BLACK
10
52.0700000000000003
20
-68.9599999999999937
40
0.85
0
CIRCLE
8
BLACK
10
53.3399999999999963
20
-66.4200000000000017
40
1.5
0
CIRCLE
8
BLACK
10
54.6099999999999994
20
-63.8799999999999955
40
1.5
0
CIRCLE
8
BLACK
10
57.1499999999999986
20
-68.9599999999999937
40
2.5
0
CIRCLE
8
BLACK
10
57.1499999999999986
20
-68.9599999999999937
40
2.5
0
CIRCLE
8
BLACK
10
57.1499999999999986
20
-74.8599999999999994
40
1.5
0
CIRCLE
8
BLACK
10
57.1499999999999986
20
-74.8599999999999994
40
1.5
0
CIRCLE
8
BLACK
10
59.6899999999999977
20
-63.8799999999999955
40
1.5
0
CIRCLE
8
BLACK
10
60.9599999999999937
20
-66.4200000000000017
40
1.5
0
CIRCLE
8
BLACK
10
62.2299999999999969
20
-68.9599999999999937
40
0.85
0
CIRCLE
8
BLACK
10
62.6499999999999986
20
-68.9599999999999937
40
0.8509
0
CIRCLE
8
BLACK
10
62.1499999999999986
20
-63.8099999999999952
40
0.5
0
CIRCLE
8
BLACK
10
62.1499999999999986
20
-72.7599999999999909
40
1.5
0
CIRCLE
8
BLACK
10
52.1499999999999986
20
-63.8099999999999952
40
0.5
0
CIRCLE
8
BLACK
10
52.1499999999999986
20
-72.7599999999999909
40
1.5
0
CIRCLE
8
BLACK
10
32.6000000000000014
20
-14.286999999999999
40
0.8509
0
CIRCLE
8
BLACK
10
33.019999999999996
20
-14.286999999999999
40
0.85
0
CIRCLE
8
BLACK
10
34.2899999999999991
20
-11.7469999999999999
40
1.5
0
CIRCLE
8
BLACK
10
35.5599999999999952
20
-9.206999999999999
40
1.5
0
CIRCLE
8
BLACK
10
38.1000000000000014
20
-14.286999999999999
40
2.5
0
CIRCLE
8
BLACK
10
38.1000000000000014
20
-14.286999999999999
40
2.5
0
CIRCLE
8
BLACK
10
38.1000000000000014
20
-20.1869999999999976
40
1.5
0
CIRCLE
8
BLACK
10
38.1000000000000014
20
-20.1869999999999976
40
1.5
0
CIRCLE
8
BLACK
10
40.6400000000000006
20
-9.206999999999999
40
1.5
0
CIRCLE
8
BLACK
10
41.9099999999999966
20
-11.7469999999999999
40
1.5
0
CIRCLE
8
BLACK
10
43.1799999999999997
20
-14.286999999999999
40
0.85
0
CIRCLE
8
BLACK
10
43.6000000000000014
20
-14.286999999999999
40
0.8509
0
CIRCLE
8
BLACK
10
43.1000000000000014
20
-9.1370000000000005
40
0.5
0
CIRCLE
8
BLACK
10
43.1000000000000014
20
-18.0869999999999997
40
1.5
0
CIRCLE
8
BLACK
10
33.1000000000000014
20
-9.1370000000000005
40
0.5
0
CIRCLE
8
BLACK
10
33.1000000000000014
20
-18.0869999999999997
40
1.5
0
CIRCLE
8
BLACK
10
13.5499999999999989
20
-76.2000000000000028
40
0.8509
0
CIRCLE
8
BLACK
10
13.9699999999999989
20
-76.2000000000000028
40
0.85
0
CIRCLE
8
BLACK
10
15.2399999999999984
20
-73.6599999999999966
40
1.5
0
CIRCLE
8
BLACK
10
16.509999999999998
20
-71.1199999999999903
40
1.5
0
CIRCLE
8
BLACK
10
19.0500000000000007
20
-76.2000000000000028
40
2.5
0
CIRCLE
8
BLACK
10
19.0500000000000007
20
-76.2000000000000028
40
2.5
0
CIRCLE
8
BLACK
10
19.0500000000000007
20
-82.0999999999999943
40
1.5
0
CIRCLE
8
BLACK
10
19.0500000000000007
20
-82.0999999999999943
40
1.5
0
CIRCLE
8
BLACK
10
21.5899999999999999
20
-71.1199999999999903
40
1.5
0
CIRCLE
8
BLACK
10
22.8599999999999994
20
-73.6599999999999966
40
1.5
0
CIRCLE
8
BLACK
10
24.129999999999999
20
-76.2000000000000028
40
0.85
0
CIRCLE
8
BLACK
10
24.5499999999999972
20
-76.2000000000000028
40
0.8509
0
CIRCLE
8
BLACK
10
24.0499999999999972
20
-71.0499999999999972
40
0.5
0
CIRCLE
8
BLACK
10
24.0499999999999972
20
-80.
40
1.5
0
CIRCLE
8
BLACK
10
14.0499999999999989
20
-71.0499999999999972
40
0.5
0
CIRCLE
8
BLACK
10
14.0499999999999989
20
-80.
40
1.5
0
CIRCLE
8
BLACK
10
89.75
20
2.4769999999999999
40
0.8509
0
CIRCLE
8
BLACK
10
90.1700000000000017
20
2.4769999999999999
40
0.85
0
CIRCLE
8
BLACK
10
91.4399999999999977
20
5.0169999999999995
40
1.5
0
CIRCLE
8
BLACK
10
92.7099999999999937
20
7.5569999999999995
40
1.5
0
CIRCLE
8
BLACK
10
95.25
20
2.4769999999999999
40
2.5
0
CIRCLE
8
BLACK
10
95.25
20
2.4769999999999999
40
2.5
0
CIRCLE
8
BLACK
10
95.25
20
-3.423
40
1.5
0
CIRCLE
8
BLACK
10
95.25
20
-3.423
40
1.5
0
CIRCLE
8
BLACK
10
97.789999999999992
20
7.5569999999999995
40
1.5
0
CIRCLE
8
BLACK
10
99.0600000000000023
20
5.0169999999999995
40
1.5
0
CIRCLE
8
BLACK
10
100.3299999999999983
20
2.4769999999999999
40
0.85
0
CIRCLE
8
BLACK
10
100.75
20
2.4769999999999999
40
0.8509
0
CIRCLE
8
BLACK
10
100.25
20
7.6269999999999998
40
0.5
0
CIRCLE
8
BLACK
10
100.25
20
-1.323
40
1.5
0
CIRCLE
8
BLACK
10
90.25
20
7.6269999999999998
40
0.5
0
CIRCLE
8
BLACK
10
90.25
20
-1.323
40
1.5
0
CIRCLE
8
BLACK
10
-5.5
20
-57.1499999999999986
40
0.8509
0
CIRCLE
8
BLACK
10
-5.0800000000000001
20
-57.1499999999999986
40
0.85
0
CIRCLE
8
BLACK
10
-3.8099999999999996
20
-54.6099999999999994
40
1.5
0
CIRCLE
8
BLACK
10
-2.54
20
-52.0700000000000003
40
1.5
0
CIRCLE
8
BLACK
10
0.
20
-57.1499999999999986
40
2.5
0
CIRCLE
8
BLACK
10
0.
20
-57.1499999999999986
40
2.5
0
CIRCLE
8
BLACK
10
0.
20
-63.0499999999999972
40
1.5
0
CIRCLE
8
BLACK
10
0.
20
-63.0499999999999972
40
1.5
0
CIRCLE
8
BLACK
10
2.54
20
-52.0700000000000003
40
1.5
0
CIRCLE
8
BLACK
10
3.8099999999999996
20
-54.6099999999999994
40
1.5
0
CIRCLE
8
BLACK
10
5.0800000000000001
20
-57.1499999999999986
40
0.85
0
CIRCLE
8
BLACK
10
5.5
20
-57.1499999999999986
40
0.8509
0
CIRCLE
8
BLACK
10
5.
20
-52.
40
0.5
0
CIRCLE
8
BLACK
10
5.
20
-60.9499999999999957
40
1.5
0
CIRCLE
8
BLACK
10
-5.
20
-52.
40
0.5
0
CIRCLE
8
BLACK
10
-5.
20
-60.9499999999999957
40
1.5
0
CIRCLE
8
BLACK
10
32.6000000000000014
20
-71.4369999999999976
40
0.8509
0
CIRCLE
8
BLACK
10
33.019999999999996
20
-71.4369999999999976
40
0.85
0
CIRCLE
8
BLACK
10
34.2899999999999991
20
-68.8969999999999914
40
1.5
0
CIRCLE
8
BLACK
10
35.5599999999999952
20
-66.3569999999999993
40
1.5
0
CIRCLE
8
BLACK
10
38.1000000000000014
20
-71.4369999999999976
40
2.5
0
CIRCLE
8
BLACK
10
38.1000000000000014
20
-71.4369999999999976
40
2.5
0
CIRCLE
8
BLACK
10
38.1000000000000014
20
-77.3370000000000033
40
1.5
0
CIRCLE
8
BLACK
10
38.1000000000000014
20
-77.3370000000000033
40
1.5
0
CIRCLE
8
BLACK
10
40.6400000000000006
20
-66.3569999999999993
40
1.5
0
CIRCLE
8
BLACK
10
41.9099999999999966
20
-68.8969999999999914
40
1.5
0
CIRCLE
8
BLACK
10
43.1799999999999997
20
-71.4369999999999976
40
0.85
0
CIRCLE
8
BLACK
10
43.6000000000000014
20
-71.4369999999999976
40
0.8509
0
CIRCLE
8
BLACK
10
43.1000000000000014
20
-66.2869999999999919
40
0.5
0
CIRCLE
8
BLACK
10
43.1000000000000014
20
-75.2369999999999948
40
1.5
0
CIRCLE
8
BLACK
10
33.1000000000000014
20
-66.2869999999999919
40
0.5
0
CIRCLE
8
BLACK
10
33.1000000000000014
20
-75.2369999999999948
40
1.5
0
CIRCLE
8
BLACK
10
89.75
20
-54.6729999999999947
40
0.8509
0
CIRCLE
8
BLACK
10
90.1700000000000017
20
-54.6729999999999947
40
0.85
0
CIRCLE
8
BLACK
10
91.4399999999999977
20
-52.1329999999999956
40
1.5
0
CIRCLE
8
BLACK
10
92.7099999999999937
20
-49.5929999999999964
40
1.5
0
CIRCLE
8
BLACK
10
95.25
20
-54.6729999999999947
40
2.5
0
CIRCLE
8
BLACK
10
95.25
20
-54.6729999999999947
40
2.5
0
CIRCLE
8
BLACK
10
95.25
20
-60.5730000000000004
40
1.5
0
CIRCLE
8
BLACK
10
95.25
20
-60.5730000000000004
40
1.5
0
CIRCLE
8
BLACK
10
97.789999999999992
20
-49.5929999999999964
40
1.5
0
CIRCLE
8
BLACK
10
99.0600000000000023
20
-52.1329999999999956
40
1.5
0
CIRCLE
8
BLACK
10
100.3299999999999983
20
-54.6729999999999947
40
0.85
0
CIRCLE
8
BLACK
10
100.75
20
-54.6729999999999947
40
0.8509
0
CIRCLE
8
BLACK
10
100.25
20
-49.5229999999999961
40
0.5
0
CIRCLE
8
BLACK
10
100.25
20
-58.472999999999999
40
1.5
0
CIRCLE
8
BLACK
10
90.25
20
-49.5229999999999961
40
0.5
0
CIRCLE
8
BLACK
10
90.25
20
-58.472999999999999
40
1.5
0
CIRCLE
8
BLACK
10
32.6000000000000014
20
-52.3870000000000005
40
0.8509
0
CIRCLE
8
BLACK
10
33.019999999999996
20
-52.3870000000000005
40
0.85
0
CIRCLE
8
BLACK
10
34.2899999999999991
20
-49.8469999999999942
40
1.5
0
CIRCLE
8
BLACK
10
35.5599999999999952
20
-47.3069999999999951
40
1.5
0
CIRCLE
8
BLACK
10
38.1000000000000014
20
-52.3870000000000005
40
2.5
0
CIRCLE
8
BLACK
10
38.1000000000000014
20
-52.3870000000000005
40
2.5
0
CIRCLE
8
BLACK
10
38.1000000000000014
20
-58.286999999999999
40
1.5
0
CIRCLE
8
BLACK
10
38.1000000000000014
20
-58.286999999999999
40
1.5
0
CIRCLE
8
BLACK
10
40.6400000000000006
20
-47.3069999999999951
40
1.5
0
CIRCLE
8
BLACK
10
41.9099999999999966
20
-49.8469999999999942
40
1.5
0
CIRCLE
8
BLACK
10
43.1799999999999997
20
-52.3870000000000005
40
0.85
0
CIRCLE
8
BLACK
10
43.6000000000000014
20
-52.3870000000000005
40
0.8509
0
CIRCLE
8
BLACK
10
43.1000000000000014
20
-47.2369999999999948
40
0.5
0
CIRCLE
8
BLACK
10
43.1000000000000014
20
-56.1869999999999976
40
1.5
0
CIRCLE
8
BLACK
10
33.1000000000000014
20
-47.2369999999999948
40
0.5
0
CIRCLE
8
BLACK
10
33.1000000000000014
20
-56.1869999999999976
40
1.5
0
CIRCLE
8
BLACK
10
30.6999999999999993
20
-25.1950000000000003
40
0.35
0
CIRCLE
8
BLACK
10
30.6999999999999993
20
-23.9249999999999972
40
0.35
0
CIRCLE
8
BLACK
10
31.9699999999999989
20
-25.1950000000000003
40
0.35
0
CIRCLE
8
BLACK
10
31.9699999999999989
20
-23.9249999999999972
40
0.35
0
CIRCLE
8
BLACK
10
33.240000000000002
20
-25.1950000000000003
40
0.35
0
CIRCLE
8
BLACK
10
33.240000000000002
20
-23.9249999999999972
40
0.35
0
CIRCLE
8
BLACK
10
34.509999999999998
20
-25.1950000000000003
40
0.35
0
CIRCLE
8
BLACK
10
34.509999999999998
20
-23.9249999999999972
40
0.35
0
CIRCLE
8
BLACK
10
35.7800000000000011
20
-25.1950000000000003
40
0.35
0
CIRCLE
8
BLACK
10
35.7800000000000011
20
-23.9249999999999972
40
0.35
0
CIRCLE
8
BLACK
10
37.0499999999999972
20
-25.1950000000000003
40
0.35
0
CIRCLE
8
BLACK
10
37.0499999999999972
20
-23.9249999999999972
40
0.35
0
CIRCLE
8
BLACK
10
38.3200000000000003
20
-25.1950000000000003
40
0.35
0
CIRCLE
8
BLACK
10
38.3200000000000003
20
-23.9249999999999972
40
0.35
0
CIRCLE
8
BLACK
10
39.5899999999999963
20
-25.1950000000000003
40
0.35
0
CIRCLE
8
BLACK
10
39.5899999999999963
20
-23.9249999999999972
40
0.35
0
CIRCLE
8
BLACK
10
40.8599999999999994
20
-25.1950000000000003
40
0.35
0
CIRCLE
8
BLACK
10
40.8599999999999994
20
-23.9249999999999972
40
0.35
0
CIRCLE
8
BLACK
10
42.1299999999999955
20
-25.1950000000000003
40
0.35
0
CIRCLE
8
BLACK
10
42.1299999999999955
20
-23.9249999999999972
40
0.35
0
CIRCLE
8
BLACK
10
30.6999999999999993
20
-6.1449999999999996
40
0.35
0
CIRCLE
8
BLACK
10
30.6999999999999993
20
-4.875
40
0.35
0
CIRCLE
8
BLACK
10
31.9699999999999989
20
-6.1449999999999996
40
0.35
0
CIRCLE
8
BLACK
10
31.9699999999999989
20
-4.875
40
0.35
0
CIRCLE
8
BLACK
10
33.240000000000002
20
-6.1449999999999996
40
0.35
0
CIRCLE
8
BLACK
10
33.240000000000002
20
-4.875
40
0.35
0
CIRCLE
8
BLACK
10
34.509999999999998
20
-6.1449999999999996
40
0.35
0
CIRCLE
8
BLACK
10
34.509999999999998
20
-4.875
40
0.35
0
CIRCLE
8
BLACK
10
35.7800000000000011
20
-6.1449999999999996
40
0.35
0
CIRCLE
8
BLACK
10
35.7800000000000011
20
-4.875
40
0.35
0
CIRCLE
8
BLACK
10
37.0499999999999972
20
-6.1449999999999996
40
0.35
0
CIRCLE
8
BLACK
10
37.0499999999999972
20
-4.875
40
0.35
0
CIRCLE
8
BLACK
10
38.3200000000000003
20
-6.1449999999999996
40
0.35
0
CIRCLE
8
BLACK
10
38.3200000000000003
20
-4.875
40
0.35
0
CIRCLE
8
BLACK
10
39.5899999999999963
20
-6.1449999999999996
40
0.35
0
CIRCLE
8
BLACK
10
39.5899999999999963
20
-4.875
40
0.35
0
CIRCLE
8
BLACK
10
40.8599999999999994
20
-6.1449999999999996
40
0.35
0
CIRCLE
8
BLACK
10
40.8599999999999994
20
-4.875
40
0.35
0
CIRCLE
8
BLACK
10
42.1299999999999955
20
-6.1449999999999996
40
0.35
0
CIRCLE
8
BLACK
10
42.1299999999999955
20
-4.875
40
0.35
  0
ENDSEC
  0
EOF
